# This file uses centimeters as units for non-parametric coordinates.

mtllib iv.mtl
g default
v -1.381775 -4.642539 -0.029676
v -0.859843 -4.642539 -0.029676
v -1.847652 -3.964184 -0.025340
v -1.341001 -4.041326 -0.025833
v -2.198313 -3.053348 -0.019517
v -1.699264 -3.141112 -0.020078
v -2.356074 -2.063808 -0.013192
v -1.936745 -2.275404 -0.014545
v -2.381710 -1.083475 -0.006926
v -2.038680 -1.209792 -0.007733
v -2.286210 -0.231820 -0.001482
v -1.950286 -0.279031 -0.001784
v -2.085258 0.419012 0.002678
v -1.796739 0.399465 0.002553
v -1.884134 1.078952 0.006897
v -1.615989 1.108557 0.007086
v -1.549889 1.893569 0.012104
v -1.281968 1.916330 0.012249
v -1.158640 2.519539 0.016105
v -0.867718 2.541156 0.016243
v -0.715589 3.071655 0.019634
v -0.369166 3.095677 0.019788
v -1.381775 -4.644040 0.205144
v -1.847652 -3.965685 0.209480
v -0.859843 -4.644040 0.205144
v -1.341001 -4.042827 0.208987
v -2.198313 -3.054849 0.215302
v -1.699264 -3.142613 0.214741
v -2.356074 -2.065309 0.221628
v -1.936745 -2.276905 0.220275
v -2.381710 -1.084976 0.227894
v -2.038680 -1.211293 0.227087
v -2.286210 -0.233321 0.233338
v -1.950286 -0.280532 0.233036
v -2.085258 0.417511 0.237498
v -1.796739 0.397964 0.237373
v -1.884134 1.077451 0.241717
v -1.615989 1.107056 0.241906
v -1.549889 1.892068 0.246924
v -1.281968 1.914829 0.247069
v -1.158640 2.518038 0.250925
v -0.867718 2.539655 0.251063
v -0.715589 3.070154 0.254454
v -0.369166 3.094176 0.254608
vt 0.000000 0.000000
vt 0.500000 0.000000
vt 0.000000 0.100000
vt 0.500000 0.100000
vt 0.500000 0.100000
vt 0.000000 0.200000
vt 0.500000 0.200000
vt 0.500000 0.200000
vt 0.000000 0.300000
vt 0.500000 0.300000
vt 0.500000 0.300000
vt 0.000000 0.400000
vt 0.500000 0.400000
vt 0.500000 0.400000
vt 0.000000 0.500000
vt 0.500000 0.500000
vt 0.500000 0.500000
vt 0.000000 0.600000
vt 0.500000 0.600000
vt 0.500000 0.600000
vt 0.000000 0.700000
vt 0.500000 0.700000
vt 0.500000 0.700000
vt 0.000000 0.800000
vt 0.500000 0.800000
vt 0.500000 0.800000
vt 0.000000 0.900000
vt 0.500000 0.900000
vt 0.500000 0.900000
vt 0.000000 1.000000
vt 0.500000 1.000000
vt 0.000000 0.000000
vt 0.000000 0.100000
vt 0.500000 0.000000
vt 0.500000 0.100000
vt 0.000000 0.200000
vt 0.500000 0.200000
vt 0.000000 0.300000
vt 0.500000 0.300000
vt 0.000000 0.400000
vt 0.500000 0.400000
vt 0.000000 0.500000
vt 0.500000 0.500000
vt 0.000000 0.600000
vt 0.500000 0.600000
vt 0.000000 0.700000
vt 0.500000 0.700000
vt 0.000000 0.800000
vt 0.500000 0.800000
vt 0.000000 0.900000
vt 0.500000 0.900000
vt 0.000000 1.000000
vt 0.500000 1.000000
vt 0.000000 0.000000
vt 0.000000 0.100000
vt 0.500000 0.000000
vt 0.000000 0.200000
vt 0.000000 0.300000
vt 0.000000 0.400000
vt 0.000000 0.500000
vt 0.000000 0.600000
vt 0.000000 0.700000
vt 0.000000 0.800000
vt 0.000000 0.900000
vt 0.000000 1.000000
vt 0.500000 1.000000
vn 0.000000 -0.006392 0.999980
vn 0.000000 -0.006392 0.999980
vn 0.000000 -0.006392 0.999980
vn 0.000000 -0.006392 0.999980
vn 0.000000 -0.006392 0.999980
vn 0.000000 -0.006392 0.999980
vn 0.000000 -0.006392 0.999980
vn 0.000000 -0.006392 0.999980
vn -0.000000 -0.006392 0.999980
vn -0.000000 -0.006392 0.999980
vn -0.000000 -0.006392 0.999980
vn -0.000000 -0.006392 0.999980
vn 0.000000 -0.006392 0.999980
vn -0.000000 -0.006392 0.999980
vn 0.000000 -0.006392 0.999980
vn 0.000000 -0.006392 0.999980
vn 0.000000 -0.006392 0.999980
vn 0.000000 -0.006392 0.999980
vn 0.000000 -0.006392 0.999980
vn 0.000000 -0.006392 0.999980
vn 0.000000 -0.006392 0.999980
vn 0.000000 -0.006392 0.999980
vn 0.000000 0.006392 -0.999980
vn 0.000000 0.006392 -0.999980
vn 0.000000 0.006392 -0.999980
vn 0.000000 0.006392 -0.999980
vn 0.000000 0.006392 -0.999980
vn 0.000000 0.006392 -0.999980
vn 0.000000 0.006392 -0.999980
vn 0.000000 0.006392 -0.999980
vn 0.000000 0.006392 -0.999980
vn 0.000000 0.006392 -0.999980
vn 0.000000 0.006392 -0.999980
vn 0.000000 0.006392 -0.999980
vn 0.000000 0.006392 -0.999980
vn 0.000000 0.006392 -0.999980
vn -0.000000 0.006392 -0.999980
vn -0.000000 0.006392 -0.999980
vn -0.000000 0.006392 -0.999980
vn -0.000000 0.006392 -0.999980
vn -0.000000 0.006392 -0.999980
vn -0.000000 0.006392 -0.999980
vn -0.000000 0.006392 -0.999980
vn -0.000000 0.006392 -0.999980
vn -0.889465 -0.456994 -0.002921
vn -0.824326 -0.566103 -0.003619
vn -0.824326 -0.566103 -0.003619
vn -0.889465 -0.456994 -0.002921
vn 0.000000 -0.999980 -0.006392
vn 0.000000 -0.999980 -0.006392
vn 0.000000 -0.999980 -0.006392
vn 0.000000 -0.999980 -0.006392
vn 0.780757 0.624822 0.003994
vn 0.872852 0.487976 0.003119
vn 0.872852 0.487976 0.003119
vn 0.780757 0.624822 0.003994
vn -0.966027 -0.258437 -0.001652
vn -0.966027 -0.258437 -0.001652
vn 0.947536 0.319644 0.002043
vn 0.947536 0.319644 0.002043
vn -0.995694 -0.092696 -0.000593
vn -0.995694 -0.092696 -0.000593
vn 0.984907 0.173084 0.001106
vn 0.984907 0.173084 0.001106
vn -0.999274 0.038106 0.000244
vn -0.999274 0.038106 0.000244
vn 0.999977 0.006782 0.000043
vn 0.999977 0.006782 0.000043
vn -0.981086 0.193568 0.001237
vn -0.981086 0.193568 0.001237
vn 0.988887 -0.148667 -0.000950
vn 0.988887 -0.148667 -0.000950
vn -0.956034 0.293249 0.001874
vn -0.956034 0.293249 0.001874
vn 0.972185 -0.234209 -0.001497
vn 0.972185 -0.234209 -0.001497
vn -0.939966 0.341261 0.002181
vn -0.939966 0.341261 0.002181
vn 0.946958 -0.321351 -0.002054
vn 0.946958 -0.321351 -0.002054
vn -0.893138 0.449774 0.002875
vn -0.893138 0.449774 0.002875
vn 0.886379 -0.462952 -0.002959
vn 0.886379 -0.462952 -0.002959
vn -0.816088 0.577916 0.003694
vn -0.816088 0.577916 0.003694
vn 0.790808 -0.612052 -0.003912
vn 0.790808 -0.612052 -0.003912
vn -0.779938 0.625844 0.004000
vn -0.779938 0.625844 0.004000
vn -0.069179 0.997584 0.006377
vn -0.069179 0.997584 0.006377
vn -0.069179 0.997584 0.006377
vn -0.069179 0.997584 0.006377
vn 0.743645 -0.668561 -0.004274
vn 0.743645 -0.668561 -0.004274
s 1
g pPlane1
usemtl initialShadingGroup
f 23/54/1 25/56/2 26/4/3 24/55/4
f 24/55/4 26/4/3 28/7/5 27/57/6
f 27/57/6 28/7/5 30/10/7 29/58/8
f 29/58/8 30/10/7 32/13/9 31/59/10
f 31/59/10 32/13/9 34/16/11 33/60/12
f 33/60/12 34/16/11 36/19/13 35/61/14
f 35/61/14 36/19/13 38/22/15 37/62/16
f 37/62/16 38/22/15 40/25/17 39/63/18
f 39/63/18 40/25/17 42/28/19 41/64/20
f 41/64/20 42/28/19 44/66/21 43/65/22
s 2
f 1/32/23 3/33/24 4/35/25 2/34/26
f 3/33/24 5/36/27 6/37/28 4/35/25
f 5/36/27 7/38/29 8/39/30 6/37/28
f 7/38/29 9/40/31 10/41/32 8/39/30
f 9/40/31 11/42/33 12/43/34 10/41/32
f 11/42/33 13/44/35 14/45/36 12/43/34
f 13/44/35 15/46/37 16/47/38 14/45/36
f 15/46/37 17/48/39 18/49/40 16/47/38
f 17/48/39 19/50/41 20/51/42 18/49/40
f 19/50/41 21/52/43 22/53/44 20/51/42
s 3
f 3/3/45 1/1/46 23/54/47 24/55/48
s off
f 1/1/49 2/2/50 25/56/51 23/54/52
s 4
f 2/2/53 4/5/54 26/4/55 25/56/56
s 3
f 5/6/57 3/3/45 24/55/48 27/57/58
s 4
f 4/5/54 6/8/59 28/7/60 26/4/55
s 3
f 7/9/61 5/6/57 27/57/58 29/58/62
s 4
f 6/8/59 8/11/63 30/10/64 28/7/60
s 3
f 9/12/65 7/9/61 29/58/62 31/59/66
s 4
f 8/11/63 10/14/67 32/13/68 30/10/64
s 3
f 11/15/69 9/12/65 31/59/66 33/60/70
s 4
f 10/14/67 12/17/71 34/16/72 32/13/68
s 3
f 13/18/73 11/15/69 33/60/70 35/61/74
s 4
f 12/17/71 14/20/75 36/19/76 34/16/72
s 3
f 15/21/77 13/18/73 35/61/74 37/62/78
s 4
f 14/20/75 16/23/79 38/22/80 36/19/76
s 3
f 17/24/81 15/21/77 37/62/78 39/63/82
s 4
f 16/23/79 18/26/83 40/25/84 38/22/80
s 3
f 19/27/85 17/24/81 39/63/82 41/64/86
s 4
f 18/26/83 20/29/87 42/28/88 40/25/84
s 3
f 21/30/89 19/27/85 41/64/86 43/65/90
s off
f 22/31/91 21/30/92 43/65/93 44/66/94
s 4
f 20/29/87 22/31/95 44/66/96 42/28/88
