# This file uses centimeters as units for non-parametric coordinates.

mtllib lamp.mtl
g default
v -1.523652 0.044028 1.523652
v -0.761826 0.044028 1.523652
v 0.761826 0.044028 1.523652
v 1.523652 0.044028 1.523652
v -1.523652 1.802858 1.523652
v -0.761826 1.802858 1.523652
v 0.761826 1.802858 1.523652
v 1.523652 1.802858 1.523652
v -1.523652 3.561689 1.523652
v -0.761826 3.561689 1.523652
v 0.761826 3.561689 1.523652
v 1.523652 3.561689 1.523652
v -1.523652 5.320518 1.523652
v -0.761826 5.320518 1.523652
v 0.761826 5.320518 1.523652
v 1.523652 5.320518 1.523652
v -1.523652 7.847947 1.523652
v -0.761826 7.847948 1.523652
v 0.761826 7.847948 1.523652
v 1.523652 7.847947 1.523652
v -1.523652 8.838180 1.523652
v -0.761826 8.838180 1.523652
v 0.761826 8.838180 1.523652
v 1.523652 8.838180 1.523652
v -1.523652 8.838180 0.761826
v -0.761826 8.838180 0.761826
v 0.761826 8.838180 0.761826
v 1.523652 8.838180 0.761826
v -1.523652 8.838180 -0.761826
v -0.761826 8.838180 -0.761826
v 0.761826 8.838180 -0.761826
v 1.523652 8.838180 -0.761826
v -1.523652 8.838180 -1.523652
v -0.761826 8.838180 -1.523652
v 0.761826 8.838180 -1.523652
v 1.523652 8.838180 -1.523652
v -1.523652 7.847947 -1.523652
v -0.761826 7.847948 -1.523652
v 0.761826 7.847948 -1.523652
v 1.523652 7.847947 -1.523652
v -1.523652 5.320518 -1.523652
v -0.761826 5.320518 -1.523652
v 0.761826 5.320518 -1.523652
v 1.523652 5.320518 -1.523652
v -1.523652 3.561689 -1.523652
v -0.761826 3.561689 -1.523652
v 0.761826 3.561689 -1.523652
v 1.523652 3.561689 -1.523652
v -1.523652 1.802858 -1.523652
v -0.761826 1.802858 -1.523652
v 0.761826 1.802858 -1.523652
v 1.523652 1.802858 -1.523652
v -1.523652 0.044028 -1.523652
v -0.761826 0.044028 -1.523652
v 0.761826 0.044028 -1.523652
v 1.523652 0.044028 -1.523652
v -1.523652 0.044028 -0.761826
v -0.761826 0.044028 -0.761826
v 0.761826 0.044028 -0.761826
v 1.523652 0.044028 -0.761826
v -1.523652 0.044028 0.761826
v -0.761826 0.044028 0.761826
v 0.761826 0.044028 0.761826
v 1.523652 0.044028 0.761826
v 1.523652 1.802858 -0.761826
v 1.523652 1.802858 0.761826
v 1.523652 3.561689 -0.761826
v 1.523652 3.561689 0.761826
v 1.523652 5.320518 -0.761826
v 1.523652 5.320518 0.761826
v 1.523652 7.847948 -0.761826
v 1.523652 7.847948 0.761826
v -1.523652 1.802858 -0.761826
v -1.523652 1.802858 0.761826
v -1.523652 3.561689 -0.761826
v -1.523652 3.561689 0.761826
v -1.523652 5.320518 -0.761826
v -1.523652 5.320518 0.761826
v -1.523652 7.847948 -0.761826
v -1.523652 7.847948 0.761826
v -0.761826 0.044028 2.001078
v -0.761826 1.802858 2.001078
v 0.761826 0.044028 2.001078
v 0.761826 1.802858 2.001078
v -0.761826 3.561689 2.001078
v 0.761826 3.561689 2.001078
v -0.761826 5.320518 2.001078
v 0.761826 5.320518 2.001078
v -0.761826 7.847948 2.001078
v 0.761826 7.847948 2.001078
v -0.761826 7.847948 -2.001078
v -0.761826 5.320518 -2.001078
v 0.761826 7.847948 -2.001078
v 0.761826 5.320518 -2.001078
v -0.761826 3.561689 -2.001078
v 0.761826 3.561689 -2.001078
v -0.761826 1.802858 -2.001078
v 0.761826 1.802858 -2.001078
v -0.761826 0.044028 -2.001078
v 0.761826 0.044028 -2.001078
v 2.117702 0.044028 -0.761826
v 2.117702 1.802858 -0.761826
v 2.117702 0.044028 0.761826
v 2.117702 1.802858 0.761826
v 2.117702 3.561689 -0.761826
v 2.117702 3.561689 0.761826
v 2.117702 5.320518 -0.761826
v 2.117702 5.320518 0.761826
v 2.117702 7.847948 -0.761826
v 2.117702 7.847948 0.761826
v -2.117702 0.044028 -0.761826
v -2.117702 1.802858 -0.761826
v -2.117702 0.044028 0.761826
v -2.117702 1.802858 0.761826
v -2.117702 3.561689 -0.761826
v -2.117702 3.561689 0.761826
v -2.117702 5.320518 -0.761826
v -2.117702 5.320518 0.761826
v -2.117702 7.847948 -0.761826
v -2.117702 7.847948 0.761826
v -0.761826 9.456706 0.761826
v 0.761826 9.456706 0.761826
v -0.761826 9.456706 -0.761826
v 0.761826 9.456706 -0.761826
vt 0.493208 0.034675
vt 0.319275 0.686229
vt 0.532270 0.705161
vt 0.493218 0.150820
vt 0.552601 0.705180
vt 0.319210 0.677142
vt 0.617554 0.630340
vt 0.617485 0.705239
vt 0.637885 0.630359
vt 0.275773 0.686545
vt 0.772932 0.147345
vt 0.637816 0.705258
vt 0.532201 0.780060
vt 0.493228 0.266966
vt 0.552532 0.780079
vt 0.617416 0.780139
vt 0.772708 0.265213
vt 0.637747 0.780158
vt 0.532132 0.854959
vt 0.493239 0.383111
vt 0.552463 0.854978
vt 0.617347 0.855038
vt 0.772484 0.383081
vt 0.637678 0.855057
vt 0.532032 0.962589
vt 0.493253 0.550011
vt 0.552363 0.962608
vt 0.617247 0.962668
vt 0.772162 0.552457
vt 0.617229 0.982999
vt 0.390177 0.849637
vt 0.390137 0.806563
vt 0.390257 0.935786
vt 0.772036 0.618817
vt 0.197157 0.836581
vt 0.442951 0.615407
vt 0.157138 0.980039
vt 0.823090 0.618914
vt 0.053699 0.796562
vt 0.342336 0.615415
vt 0.054993 0.939646
vt 0.054073 0.837876
vt 0.155843 0.836955
vt 0.156764 0.938726
vt 0.925198 0.619108
vt 0.013680 0.940020
vt 0.200520 0.615656
vt 0.251691 0.615539
vt 0.098178 0.615889
vt 0.976251 0.619205
vt 0.962317 0.978847
vt 0.292023 0.550029
vt 0.878185 0.959081
vt 0.976377 0.552845
vt 0.981937 0.852547
vt 0.292008 0.383129
vt 0.961881 0.852616
vt 0.962248 0.958791
vt 0.898241 0.959012
vt 0.897874 0.852837
vt 0.976699 0.383469
vt 0.877818 0.852907
vt 0.981682 0.778660
vt 0.291998 0.266983
vt 0.961626 0.778730
vt 0.897619 0.778951
vt 0.976923 0.265601
vt 0.877563 0.779020
vt 0.981426 0.704774
vt 0.291988 0.150838
vt 0.961370 0.704843
vt 0.897363 0.705064
vt 0.977147 0.147733
vt 0.877307 0.705134
vt 0.981171 0.630887
vt 0.334197 0.744127
vt 0.961115 0.630957
vt 0.290760 0.753530
vt 0.977371 0.029865
vt 0.290694 0.744443
vt 0.319591 0.729732
vt 0.334092 0.729627
vt 0.290589 0.729942
vt 0.755823 0.632850
vt 0.319381 0.700730
vt 0.873887 0.630086
vt 0.290379 0.700940
vt 0.275878 0.701045
vt 0.755493 0.706530
vt 0.666779 0.706132
vt 0.667109 0.632452
vt 0.730938 0.632738
vt 0.730607 0.706418
vt 0.641893 0.706021
vt 0.755163 0.780210
vt 0.666449 0.779812
vt 0.730277 0.780099
vt 0.641563 0.779701
vt 0.754832 0.853890
vt 0.666118 0.853492
vt 0.729947 0.853779
vt 0.641233 0.853381
vt 0.729360 0.984542
vt 0.665644 0.959370
vt 0.729472 0.959657
vt 0.640758 0.959259
vt 0.759966 0.704361
vt 0.784961 0.704301
vt 0.345399 0.729545
vt 0.848892 0.630146
vt 0.849068 0.704148
vt 0.874063 0.704089
vt 0.760143 0.778364
vt 0.785138 0.778304
vt 0.849245 0.778151
vt 0.874240 0.778091
vt 0.760319 0.852366
vt 0.785314 0.852306
vt 0.849421 0.852154
vt 0.874416 0.852094
vt 0.760573 0.958707
vt 0.785568 0.958648
vt 0.849675 0.958495
vt 0.849735 0.983490
vt 0.261075 0.978980
vt 0.218001 0.979020
vt 0.260914 0.806684
vt 0.217840 0.806724
vt 0.347223 0.978900
vt 0.347063 0.806603
vt 0.390297 0.978860
vt 0.528298 0.618212
vt 0.217961 0.935946
vt 0.217881 0.849798
vt 0.679415 0.618919
vt 0.578670 0.618448
vt 0.261035 0.935906
vt 0.055367 0.980960
vt 0.260955 0.849758
vt 0.012759 0.838250
vt 0.347183 0.935826
vt 0.198078 0.938352
vt 0.347103 0.849678
vt 0.155470 0.795641
vt 0.784785 0.630299
vt 0.345189 0.700543
vt 0.333881 0.700625
vt 0.342285 0.034688
vt 0.264781 0.730129
vt 0.264571 0.701127
vt 0.824210 0.029574
vt 0.276088 0.730047
vt 0.319762 0.753320
vt 0.897108 0.631178
vt 0.096831 0.025195
vt 0.319696 0.744233
vt 0.552670 0.630280
vt 0.290208 0.677352
vt 0.290274 0.686439
vt 0.581392 0.036975
vt 0.732509 0.037682
vt 0.773156 0.029477
vt 0.531020 0.036739
vt 0.333776 0.686124
vt 0.045660 0.025312
vt 0.276194 0.744548
vt 0.250345 0.024845
vt 0.291978 0.034692
vt 0.045930 0.143451
vt 0.250614 0.142984
vt 0.046199 0.261589
vt 0.250883 0.261123
vt 0.046468 0.379728
vt 0.251153 0.379262
vt 0.046856 0.549493
vt 0.251540 0.549026
vt 0.047007 0.616006
vt 0.292028 0.615420
vt 0.730093 0.553681
vt 0.729787 0.619155
vt 0.528604 0.552737
vt 0.493259 0.615402
vt 0.730876 0.386566
vt 0.529387 0.385623
vt 0.731420 0.270271
vt 0.529931 0.269328
vt 0.731965 0.153977
vt 0.530476 0.153034
vt 0.442931 0.383116
vt 0.442946 0.550016
vt 0.342316 0.383124
vt 0.342330 0.550025
vt 0.442921 0.266970
vt 0.342305 0.266979
vt 0.442911 0.150825
vt 0.342295 0.150833
vt 0.442901 0.034679
vt 0.759790 0.630358
vt 0.823538 0.383178
vt 0.823216 0.552554
vt 0.925645 0.383372
vt 0.925324 0.552748
vt 0.823762 0.265310
vt 0.925869 0.265504
vt 0.823986 0.147442
vt 0.926093 0.147636
vt 0.642224 0.632340
vt 0.926317 0.029768
vt 0.097101 0.143334
vt 0.877052 0.631247
vt 0.199443 0.143101
vt 0.199173 0.024962
vt 0.097370 0.261473
vt 0.199712 0.261239
vt 0.097640 0.379611
vt 0.199982 0.379378
vt 0.098027 0.549376
vt 0.200369 0.549143
vt 0.680503 0.386330
vt 0.679721 0.553445
vt 0.579759 0.385859
vt 0.578977 0.552973
vt 0.681048 0.270036
vt 0.580303 0.269564
vt 0.681592 0.153741
vt 0.580848 0.153269
vt 0.682137 0.037446
vt 0.532339 0.630262
vt 0.874670 0.958435
vt 0.785627 0.983642
vt 0.665532 0.984256
vt 0.754357 0.959768
vt 0.898310 0.979068
vt 0.982304 0.958721
vt 0.637578 0.962686
vt 0.552344 0.982939
vn 0.000000 0.000000 1.000000
vn 0.000000 0.000000 1.000000
vn 0.000000 0.000000 1.000000
vn 0.000000 0.000000 1.000000
vn 0.000000 0.000000 1.000000
vn 0.000000 0.000000 1.000000
vn 0.000000 0.000000 1.000000
vn 0.000000 0.000000 1.000000
vn 0.000000 0.000000 1.000000
vn 0.000000 0.000000 1.000000
vn 0.000000 0.000000 1.000000
vn 0.000000 0.000000 1.000000
vn 0.000000 0.000000 1.000000
vn 0.000000 0.000000 1.000000
vn 0.000000 0.000000 1.000000
vn 0.000000 0.000000 1.000000
vn 0.000000 0.000000 1.000000
vn 0.000000 0.000000 1.000000
vn 0.000000 0.000000 1.000000
vn 0.000000 0.000000 1.000000
vn 0.000000 0.000000 1.000000
vn 0.000000 0.000000 1.000000
vn 0.000000 0.000000 1.000000
vn 0.000000 0.000000 1.000000
vn 0.000000 0.000000 1.000000
vn 0.000000 0.000000 1.000000
vn 0.000000 0.000000 1.000000
vn 0.000000 0.000000 1.000000
vn 0.000000 0.000000 1.000000
vn 0.000000 0.000000 1.000000
vn 0.000000 0.000000 1.000000
vn 0.000000 0.000000 1.000000
vn 0.000000 0.000000 1.000000
vn 0.000000 0.000000 1.000000
vn 0.000000 1.000000 0.000000
vn 0.000000 1.000000 0.000000
vn 0.000000 1.000000 0.000000
vn 0.000000 1.000000 0.000000
vn 0.000000 1.000000 0.000000
vn 0.000000 1.000000 0.000000
vn 0.000000 1.000000 0.000000
vn 0.000000 1.000000 0.000000
vn 0.000000 1.000000 0.000000
vn 0.000000 1.000000 0.000000
vn 0.000000 1.000000 0.000000
vn 0.000000 1.000000 0.000000
vn 0.000000 1.000000 0.000000
vn 0.000000 1.000000 0.000000
vn 0.000000 1.000000 0.000000
vn 0.000000 1.000000 0.000000
vn 0.000000 1.000000 0.000000
vn 0.000000 1.000000 0.000000
vn 0.000000 1.000000 0.000000
vn 0.000000 1.000000 0.000000
vn 0.000000 0.000000 -1.000000
vn 0.000000 0.000000 -1.000000
vn 0.000000 0.000000 -1.000000
vn 0.000000 0.000000 -1.000000
vn 0.000000 0.000000 -1.000000
vn 0.000000 0.000000 -1.000000
vn 0.000000 0.000000 -1.000000
vn 0.000000 0.000000 -1.000000
vn 0.000000 0.000000 -1.000000
vn 0.000000 0.000000 -1.000000
vn 0.000000 0.000000 -1.000000
vn 0.000000 0.000000 -1.000000
vn 0.000000 0.000000 -1.000000
vn 0.000000 0.000000 -1.000000
vn 0.000000 0.000000 -1.000000
vn 0.000000 0.000000 -1.000000
vn 0.000000 -0.000000 -1.000000
vn 0.000000 -0.000000 -1.000000
vn 0.000000 0.000000 -1.000000
vn 0.000000 0.000000 -1.000000
vn 0.000000 0.000000 -1.000000
vn 0.000000 0.000000 -1.000000
vn 0.000000 -0.000000 -1.000000
vn 0.000000 -0.000000 -1.000000
vn 0.000000 0.000000 -1.000000
vn 0.000000 0.000000 -1.000000
vn 0.000000 0.000000 -1.000000
vn 0.000000 0.000000 -1.000000
vn 0.000000 0.000000 -1.000000
vn 0.000000 0.000000 -1.000000
vn 0.000000 0.000000 -1.000000
vn 0.000000 0.000000 -1.000000
vn 0.000000 0.000000 -1.000000
vn 0.000000 0.000000 -1.000000
vn 0.000000 -1.000000 0.000000
vn 0.000000 -1.000000 0.000000
vn 0.000000 -1.000000 0.000000
vn 0.000000 -1.000000 0.000000
vn 0.000000 -1.000000 0.000000
vn 0.000000 -1.000000 0.000000
vn 0.000000 -1.000000 0.000000
vn 0.000000 -1.000000 0.000000
vn 0.000000 -1.000000 0.000000
vn 0.000000 -1.000000 0.000000
vn 0.000000 -1.000000 0.000000
vn 0.000000 -1.000000 0.000000
vn 0.000000 -1.000000 0.000000
vn 0.000000 -1.000000 0.000000
vn 0.000000 -1.000000 0.000000
vn 0.000000 -1.000000 0.000000
vn 1.000000 0.000000 0.000000
vn 1.000000 0.000000 0.000000
vn 1.000000 0.000000 0.000000
vn 1.000000 0.000000 0.000000
vn 1.000000 0.000000 0.000000
vn 1.000000 0.000000 0.000000
vn 1.000000 0.000000 0.000000
vn 1.000000 0.000000 0.000000
vn 1.000000 0.000000 0.000000
vn 1.000000 0.000000 0.000000
vn 1.000000 0.000000 0.000000
vn 1.000000 0.000000 0.000000
vn 1.000000 0.000000 0.000000
vn 1.000000 0.000000 0.000000
vn 1.000000 0.000000 0.000000
vn 1.000000 0.000000 0.000000
vn 1.000000 0.000000 0.000000
vn 1.000000 0.000000 0.000000
vn 1.000000 0.000000 0.000000
vn 1.000000 0.000000 0.000000
vn 1.000000 0.000000 0.000000
vn 1.000000 0.000000 0.000000
vn 1.000000 0.000000 0.000000
vn 1.000000 0.000000 0.000000
vn 1.000000 0.000000 0.000000
vn 1.000000 0.000000 0.000000
vn 1.000000 0.000000 0.000000
vn 1.000000 0.000000 0.000000
vn 1.000000 0.000000 0.000000
vn 1.000000 0.000000 0.000000
vn 1.000000 0.000000 0.000000
vn 1.000000 0.000000 0.000000
vn 1.000000 0.000000 0.000000
vn 1.000000 0.000000 0.000000
vn -1.000000 0.000000 0.000000
vn -1.000000 0.000000 0.000000
vn -1.000000 -0.000000 0.000000
vn -1.000000 -0.000000 0.000000
vn -1.000000 0.000000 0.000000
vn -1.000000 0.000000 0.000000
vn -1.000000 0.000000 0.000000
vn -1.000000 0.000000 0.000000
vn -1.000000 0.000000 0.000000
vn -1.000000 0.000000 0.000000
vn -1.000000 0.000000 0.000000
vn -1.000000 0.000000 0.000000
vn -1.000000 -0.000000 0.000000
vn -1.000000 -0.000000 0.000000
vn -1.000000 0.000000 0.000000
vn -1.000000 0.000000 0.000000
vn -1.000000 0.000000 0.000000
vn -1.000000 0.000000 0.000000
vn -1.000000 0.000000 0.000000
vn -1.000000 0.000000 0.000000
vn -1.000000 0.000000 0.000000
vn -1.000000 0.000000 0.000000
vn -1.000000 0.000000 0.000000
vn -1.000000 0.000000 0.000000
vn -1.000000 0.000000 0.000000
vn -1.000000 0.000000 0.000000
vn -1.000000 0.000000 0.000000
vn -1.000000 0.000000 0.000000
vn -1.000000 0.000000 0.000000
vn -1.000000 0.000000 0.000000
vn -1.000000 0.000000 0.000000
vn -1.000000 0.000000 0.000000
vn -1.000000 0.000000 0.000000
vn -1.000000 0.000000 0.000000
vn 0.000000 -1.000000 0.000000
vn 0.000000 -1.000000 0.000000
vn 0.000000 -1.000000 0.000000
vn 0.000000 -1.000000 0.000000
vn -1.000000 0.000000 0.000000
vn -1.000000 0.000000 0.000000
vn -1.000000 0.000000 0.000000
vn -1.000000 0.000000 0.000000
vn 1.000000 0.000000 0.000000
vn 1.000000 0.000000 0.000000
vn 1.000000 0.000000 0.000000
vn 1.000000 0.000000 0.000000
vn -1.000000 0.000000 0.000000
vn -1.000000 0.000000 0.000000
vn -1.000000 0.000000 0.000000
vn -1.000000 0.000000 0.000000
vn 1.000000 0.000000 0.000000
vn 1.000000 0.000000 0.000000
vn 1.000000 0.000000 0.000000
vn 1.000000 0.000000 0.000000
vn -1.000000 0.000000 0.000000
vn -1.000000 0.000000 0.000000
vn -1.000000 0.000000 0.000000
vn -1.000000 0.000000 0.000000
vn 1.000000 0.000000 0.000000
vn 1.000000 0.000000 0.000000
vn 1.000000 0.000000 0.000000
vn 1.000000 0.000000 0.000000
vn -1.000000 0.000000 0.000000
vn -1.000000 0.000000 0.000000
vn -1.000000 0.000000 0.000000
vn -1.000000 0.000000 0.000000
vn 1.000000 0.000000 0.000000
vn 1.000000 0.000000 0.000000
vn 1.000000 0.000000 0.000000
vn 1.000000 0.000000 0.000000
vn 0.000000 1.000000 0.000000
vn 0.000000 1.000000 0.000000
vn 0.000000 1.000000 0.000000
vn 0.000000 1.000000 0.000000
vn 0.000000 1.000000 0.000000
vn 0.000000 1.000000 0.000000
vn 0.000000 1.000000 0.000000
vn 0.000000 1.000000 0.000000
vn -1.000000 0.000000 0.000000
vn -1.000000 0.000000 0.000000
vn -1.000000 0.000000 0.000000
vn -1.000000 0.000000 0.000000
vn 1.000000 0.000000 0.000000
vn 1.000000 0.000000 0.000000
vn 1.000000 0.000000 0.000000
vn 1.000000 0.000000 0.000000
vn -1.000000 0.000000 0.000000
vn -1.000000 0.000000 0.000000
vn -1.000000 0.000000 0.000000
vn -1.000000 0.000000 0.000000
vn 1.000000 0.000000 0.000000
vn 1.000000 0.000000 0.000000
vn 1.000000 0.000000 0.000000
vn 1.000000 0.000000 0.000000
vn -1.000000 0.000000 0.000000
vn -1.000000 0.000000 0.000000
vn -1.000000 0.000000 0.000000
vn -1.000000 0.000000 0.000000
vn 1.000000 0.000000 0.000000
vn 1.000000 0.000000 0.000000
vn 1.000000 0.000000 0.000000
vn 1.000000 0.000000 0.000000
vn -1.000000 0.000000 0.000000
vn -1.000000 0.000000 0.000000
vn -1.000000 0.000000 0.000000
vn -1.000000 0.000000 0.000000
vn 1.000000 0.000000 0.000000
vn 1.000000 0.000000 0.000000
vn 1.000000 0.000000 0.000000
vn 1.000000 0.000000 0.000000
vn 0.000000 -1.000000 0.000000
vn 0.000000 -1.000000 0.000000
vn 0.000000 -1.000000 0.000000
vn 0.000000 -1.000000 0.000000
vn 0.000000 0.000000 -1.000000
vn 0.000000 0.000000 -1.000000
vn 0.000000 0.000000 -1.000000
vn 0.000000 0.000000 -1.000000
vn 0.000000 -1.000000 0.000000
vn 0.000000 -1.000000 0.000000
vn 0.000000 -1.000000 0.000000
vn 0.000000 -1.000000 0.000000
vn 0.000000 0.000000 1.000000
vn 0.000000 0.000000 1.000000
vn 0.000000 0.000000 1.000000
vn 0.000000 0.000000 1.000000
vn 0.000000 0.000000 -1.000000
vn 0.000000 0.000000 -1.000000
vn 0.000000 0.000000 -1.000000
vn 0.000000 0.000000 -1.000000
vn 0.000000 0.000000 1.000000
vn 0.000000 0.000000 1.000000
vn 0.000000 0.000000 1.000000
vn 0.000000 0.000000 1.000000
vn 0.000000 0.000000 -1.000000
vn 0.000000 0.000000 -1.000000
vn 0.000000 0.000000 -1.000000
vn 0.000000 0.000000 -1.000000
vn 0.000000 0.000000 1.000000
vn 0.000000 0.000000 1.000000
vn 0.000000 0.000000 1.000000
vn 0.000000 0.000000 1.000000
vn 0.000000 0.000000 -1.000000
vn 0.000000 0.000000 -1.000000
vn 0.000000 0.000000 -1.000000
vn 0.000000 0.000000 -1.000000
vn 0.000000 1.000000 0.000000
vn 0.000000 1.000000 0.000000
vn 0.000000 1.000000 0.000000
vn 0.000000 1.000000 0.000000
vn 0.000000 0.000000 1.000000
vn 0.000000 0.000000 1.000000
vn 0.000000 0.000000 1.000000
vn 0.000000 0.000000 1.000000
vn 0.000000 -1.000000 0.000000
vn 0.000000 -1.000000 0.000000
vn 0.000000 -1.000000 0.000000
vn 0.000000 -1.000000 0.000000
vn -0.000000 0.000000 -1.000000
vn -0.000000 0.000000 -1.000000
vn -0.000000 0.000000 -1.000000
vn -0.000000 0.000000 -1.000000
vn -0.000000 0.000000 1.000000
vn -0.000000 0.000000 1.000000
vn -0.000000 0.000000 1.000000
vn -0.000000 0.000000 1.000000
vn -0.000000 0.000000 -1.000000
vn -0.000000 0.000000 -1.000000
vn -0.000000 0.000000 -1.000000
vn -0.000000 0.000000 -1.000000
vn -0.000000 0.000000 1.000000
vn -0.000000 0.000000 1.000000
vn -0.000000 0.000000 1.000000
vn -0.000000 0.000000 1.000000
vn -0.000000 0.000000 -1.000000
vn -0.000000 0.000000 -1.000000
vn -0.000000 0.000000 -1.000000
vn -0.000000 0.000000 -1.000000
vn -0.000000 0.000000 1.000000
vn -0.000000 0.000000 1.000000
vn -0.000000 0.000000 1.000000
vn -0.000000 0.000000 1.000000
vn -0.000000 0.000000 -1.000000
vn -0.000000 0.000000 -1.000000
vn -0.000000 0.000000 -1.000000
vn -0.000000 0.000000 -1.000000
vn -0.000000 0.000000 1.000000
vn -0.000000 0.000000 1.000000
vn -0.000000 0.000000 1.000000
vn -0.000000 0.000000 1.000000
vn 0.000000 1.000000 0.000000
vn 0.000000 1.000000 0.000000
vn 0.000000 1.000000 0.000000
vn 0.000000 1.000000 0.000000
vn 0.000000 0.000000 1.000000
vn 0.000000 0.000000 1.000000
vn 0.000000 0.000000 1.000000
vn 0.000000 0.000000 1.000000
vn 1.000000 0.000000 0.000000
vn 1.000000 0.000000 0.000000
vn 1.000000 0.000000 0.000000
vn 1.000000 0.000000 0.000000
vn -1.000000 0.000000 0.000000
vn -1.000000 0.000000 0.000000
vn -1.000000 0.000000 0.000000
vn -1.000000 0.000000 0.000000
vn 0.000000 0.000000 -1.000000
vn 0.000000 0.000000 -1.000000
vn 0.000000 0.000000 -1.000000
vn 0.000000 0.000000 -1.000000
s 1
g pCube1
usemtl initialShadingGroup
f 1/163/1 2/160/2 6/226/3 5/188/4
s 2
f 82/5/5 81/157/6 83/7/7 84/8/8
s 1
f 3/227/9 4/161/10 8/187/11 7/225/12
f 5/188/4 6/226/3 10/224/13 9/186/14
s 2
f 85/15/15 82/5/5 84/8/8 86/16/16
s 1
f 7/225/12 8/187/11 12/185/17 11/223/18
f 9/186/14 10/224/13 14/221/19 13/184/20
s 2
f 87/21/21 85/15/15 86/16/16 88/22/22
s 1
f 11/223/18 12/185/17 16/183/23 15/219/24
f 13/184/20 14/221/19 18/222/25 17/181/26
s 2
f 89/27/27 87/21/21 88/22/22 90/28/28
s 1
f 15/219/24 16/183/23 20/179/29 19/220/30
f 17/181/26 18/222/25 22/136/31 21/132/32
f 22/136/31 18/222/25 19/220/30 23/135/33
f 19/220/30 20/179/29 24/180/34 23/135/33
s 4
f 21/32/35 22/31/36 26/143/37 25/130/38
f 26/143/37 22/31/36 23/33/39 27/141/40
f 23/33/39 24/131/41 28/129/42 27/141/40
f 26/143/37 30/139/43 29/127/44 25/130/38
s off
f 122/44/45 124/41/46 123/42/47 121/43/48
s 4
f 28/129/42 32/125/49 31/137/50 27/141/40
f 29/127/44 30/139/43 34/134/51 33/128/52
f 34/134/51 30/139/43 31/137/50 35/133/53
f 31/137/50 32/125/49 36/126/54 35/133/53
s 5
f 33/48/55 34/47/56 38/218/57 37/176/58
f 38/218/57 34/47/56 35/49/59 39/217/60
f 35/49/59 36/177/61 40/175/62 39/217/60
f 37/176/58 38/218/57 42/216/63 41/174/64
s 6
f 92/57/65 91/58/66 93/59/67 94/60/68
s 5
f 39/217/60 40/175/62 44/173/69 43/215/70
f 41/174/64 42/216/63 46/214/71 45/172/72
s 6
f 95/65/73 92/57/65 94/60/68 96/66/74
s 5
f 43/215/70 44/173/69 48/171/75 47/213/76
f 45/172/72 46/214/71 50/211/77 49/170/78
s 6
f 97/71/79 95/65/73 96/66/74 98/72/80
s 5
f 47/213/76 48/171/75 52/169/81 51/209/82
f 49/170/78 50/211/77 54/212/83 53/167/84
s 6
f 99/77/85 97/71/79 98/72/80 100/154/86
s 5
f 51/209/82 52/169/81 56/165/87 55/155/88
s 7
f 53/76/89 54/156/90 58/81/91 57/82/92
f 58/81/91 54/156/90 55/80/93 59/83/94
f 55/80/93 56/166/95 60/152/96 59/83/94
f 58/81/91 62/85/97 61/147/98 57/82/92
f 59/83/94 63/87/99 62/85/97 58/81/91
f 60/152/96 64/88/100 63/87/99 59/83/94
f 61/147/98 62/85/97 2/2/101 1/164/102
f 2/2/101 62/85/97 63/87/99 3/159/103
f 63/87/99 64/88/100 4/10/104 3/159/103
s 8
f 60/208/105 56/79/106 52/73/107 65/206/108
s 9
f 102/93/109 104/90/110 103/91/111 101/92/112
s 8
f 4/162/113 64/151/114 66/205/115 8/11/116
f 65/206/108 52/73/107 48/67/117 67/204/118
s 9
f 105/97/119 106/96/120 104/90/110 102/93/109
s 8
f 8/11/116 66/205/115 68/203/121 12/17/122
f 67/204/118 48/67/117 44/61/123 69/201/124
s 9
f 107/101/125 108/100/126 106/96/120 105/97/119
s 8
f 12/17/122 68/203/121 70/199/127 16/23/128
f 69/201/124 44/61/123 40/54/129 71/202/130
s 9
f 109/105/131 110/104/132 108/100/126 107/101/125
s 8
f 16/23/128 70/199/127 72/200/133 20/29/134
f 71/202/130 40/54/129 36/50/135 32/45/136
f 28/38/137 72/200/133 71/202/130 32/45/136
f 20/29/134 72/200/133 28/38/137 24/34/138
s 11
f 53/168/139 57/148/140 73/196/141 49/70/142
s 12
f 112/108/143 111/145/144 113/110/145 114/111/146
s 11
f 61/197/147 1/1/148 5/4/149 74/195/150
f 49/70/142 73/196/141 75/194/151 45/64/152
s 12
f 115/114/153 112/108/143 114/111/146 116/115/154
s 11
f 74/195/150 5/4/149 9/14/155 76/193/156
f 45/64/152 75/194/151 77/191/157 41/56/158
s 12
f 117/118/159 115/114/153 116/115/154 118/119/160
s 11
f 76/193/156 9/14/155 13/20/161 78/189/162
f 41/56/158 77/191/157 79/192/163 37/52/164
s 12
f 119/122/165 117/118/159 118/119/160 120/123/166
s 11
f 78/189/162 13/20/161 17/26/167 80/190/168
f 37/52/164 79/192/163 29/40/169 33/178/170
f 25/36/171 29/40/169 79/192/163 80/190/168
f 80/190/168 17/26/167 21/182/172 25/36/171
s off
f 81/6/173 2/2/174 3/159/175 83/158/176
f 6/3/177 2/228/178 81/157/179 82/5/180
f 3/9/181 7/12/182 84/8/183 83/7/184
f 10/13/185 6/3/186 82/5/187 85/15/188
f 7/12/189 11/18/190 86/16/191 84/8/192
f 14/19/193 10/13/194 85/15/195 87/21/196
f 11/18/197 15/24/198 88/22/199 86/16/200
f 18/25/201 14/19/202 87/21/203 89/27/204
f 15/24/205 19/235/206 90/28/207 88/22/208
f 89/27/209 90/28/210 19/30/211 18/236/212
f 91/58/213 38/51/214 39/233/215 93/59/216
f 42/55/217 38/234/218 91/58/219 92/57/220
f 39/53/221 43/62/222 94/60/223 93/59/224
f 46/63/225 42/55/226 92/57/227 95/65/228
f 43/62/229 47/68/230 96/66/231 94/60/232
f 50/69/233 46/63/234 95/65/235 97/71/236
f 47/68/237 51/74/238 98/72/239 96/66/240
f 54/75/241 50/69/242 97/71/243 99/77/244
f 51/74/245 55/210/246 100/154/247 98/72/248
f 99/153/249 100/78/250 55/80/251 54/156/252
f 60/84/253 65/89/254 102/93/255 101/92/256
f 101/149/257 103/150/258 64/88/259 60/152/260
f 66/94/261 64/207/262 103/91/263 104/90/264
f 65/89/265 67/95/266 105/97/267 102/93/268
f 68/98/269 66/94/270 104/90/271 106/96/272
f 67/95/273 69/99/274 107/101/275 105/97/276
f 70/102/277 68/98/278 106/96/279 108/100/280
f 69/99/281 71/232/282 109/105/283 107/101/284
f 109/105/285 71/103/286 72/231/287 110/104/288
f 72/106/289 70/102/290 108/100/291 110/104/292
f 111/109/293 57/82/294 61/147/295 113/146/296
f 73/107/297 57/198/298 111/145/299 112/108/300
f 61/86/301 74/112/302 114/111/303 113/110/304
f 75/113/305 73/107/306 112/108/307 115/114/308
f 74/112/309 76/116/310 116/115/311 114/111/312
f 77/117/313 75/113/314 115/114/315 117/118/316
f 76/116/317 78/120/318 118/119/319 116/115/320
f 79/121/321 77/117/322 117/118/323 119/122/324
f 78/120/325 80/229/326 120/123/327 118/119/328
f 119/122/329 120/123/330 80/124/331 79/230/332
f 121/43/333 26/35/334 27/142/335 122/44/336
f 122/44/337 27/37/338 31/138/339 124/41/340
f 121/43/341 123/42/342 30/39/343 26/144/344
f 123/42/345 124/41/346 31/46/347 30/140/348
