# This file uses centimeters as units for non-parametric coordinates.

mtllib part2.mtl
g default
v -3.098549 3.474300 3.098549
v -1.859129 3.474300 3.098549
v 1.859129 3.474300 3.098549
v 3.098549 3.474300 3.098549
v -3.098549 3.474300 1.859129
v -1.859129 3.474300 1.859129
v 1.859129 3.474300 1.859129
v 3.098549 3.474300 1.859129
v -3.098549 3.474300 0.619710
v -1.859129 3.474300 0.619710
v -3.098549 3.474300 -0.619710
v -1.859129 3.474300 -0.619710
v -3.098549 3.474300 -1.859129
v -1.859129 3.474300 -1.859129
v 0.000000 3.474300 -1.859129
v 1.239419 3.474300 -1.859129
v 1.859129 3.474300 -1.859129
v 3.098549 3.474300 -1.859129
v -3.098549 3.474300 -3.098549
v -1.859129 3.474300 -3.098549
v 0.000000 3.474300 -3.098549
v 1.239419 3.474300 -3.098549
v 1.859129 3.474300 -3.098549
v 3.098549 3.474300 -3.098549
v -3.098549 6.751865 3.098549
v -1.859129 6.751865 3.098549
v 1.859129 6.751865 3.098549
v 3.098549 6.751865 3.098549
v -3.098549 6.751865 1.859129
v -2.479160 6.751865 2.479160
v 2.479160 6.751865 2.479160
v 3.098549 6.751865 1.859129
v -3.098549 6.751865 0.619710
v -2.479160 6.751865 0.826386
v -3.098549 6.751865 -0.619710
v -2.479160 6.751865 -0.826387
v -3.098549 6.751865 -1.859129
v -2.479160 6.751865 -2.479160
v 2.479160 6.751865 -2.479160
v 3.098549 6.751865 -1.859129
v -3.098549 6.751865 -3.098549
v -1.859129 6.751865 -3.098549
v 0.000000 6.751865 -2.479160
v -0.000000 6.751865 -3.098549
v 1.652773 6.751865 -2.479160
v 1.239419 6.751865 -3.098549
v 1.859129 6.751865 -3.098549
v 3.098549 6.751865 -3.098549
vt 0.000000 0.000000
vt 0.200000 0.000000
vt 0.800000 0.000000
vt 1.000000 0.000000
vt 0.000000 0.200000
vt 0.200000 0.200000
vt 0.800000 0.200000
vt 1.000000 0.200000
vt 0.000000 0.400000
vt 0.200000 0.400000
vt 0.000000 0.600000
vt 0.200000 0.600000
vt 0.000000 0.800000
vt 0.200000 0.800000
vt 0.500000 0.800000
vt 0.700000 0.800000
vt 0.800000 0.800000
vt 1.000000 0.800000
vt 0.000000 1.000000
vt 0.200000 1.000000
vt 0.500000 1.000000
vt 0.700000 1.000000
vt 0.800000 1.000000
vt 1.000000 1.000000
vt 0.200000 1.000000
vt 0.500000 1.000000
vt 0.700000 1.000000
vt 0.800000 1.000000
vt 0.000000 0.000000
vt 0.200000 0.000000
vt 0.800000 0.000000
vt 1.000000 0.000000
vt 0.000000 0.200000
vt 0.200000 0.200000
vt 0.800000 0.200000
vt 1.000000 0.200000
vt 0.000000 0.400000
vt 0.200000 0.400000
vt 0.000000 0.600000
vt 0.200000 0.600000
vt 0.000000 0.800000
vt 0.200000 0.800000
vt 0.800000 0.800000
vt 1.000000 0.800000
vt 0.000000 1.000000
vt 0.200000 1.000000
vt 0.500000 0.800000
vt 0.500000 1.000000
vt 0.700000 0.800000
vt 0.700000 1.000000
vt 0.800000 1.000000
vt 1.000000 1.000000
vt 0.000000 0.000000
vt 0.200000 0.000000
vt 0.800000 0.000000
vt 1.000000 0.000000
vt 0.000000 0.200000
vt 0.800000 0.200000
vt 0.200000 0.200000
vt 1.000000 0.200000
vt 0.000000 0.400000
vt 0.200000 0.400000
vt 0.000000 0.600000
vt 0.200000 0.600000
vt 0.000000 0.800000
vt 0.200000 0.800000
vt 0.800000 0.800000
vt 1.000000 0.800000
vt 0.000000 1.000000
vt 0.500000 0.800000
vt 0.700000 0.800000
vt 1.000000 1.000000
vn 0.000000 1.000000 0.000000
vn 0.000000 1.000000 -0.000000
vn 0.000000 1.000000 -0.000000
vn 0.000000 1.000000 0.000000
vn 0.000000 1.000000 -0.000000
vn 0.000000 1.000000 -0.000000
vn 0.000000 1.000000 0.000000
vn 0.000000 1.000000 0.000000
vn 0.000000 1.000000 0.000000
vn 0.000000 1.000000 0.000000
vn 0.000000 1.000000 0.000000
vn 0.000000 1.000000 0.000000
vn 0.000000 1.000000 0.000000
vn 0.000000 1.000000 0.000000
vn 0.000000 1.000000 0.000000
vn 0.000000 1.000000 0.000000
vn 0.000000 1.000000 0.000000
vn 0.000000 1.000000 0.000000
vn 0.000000 1.000000 0.000000
vn 0.000000 1.000000 0.000000
vn 0.000000 1.000000 0.000000
vn 0.000000 1.000000 0.000000
vn 0.000000 1.000000 0.000000
vn 0.000000 1.000000 0.000000
vn 0.000000 -1.000000 0.000000
vn 0.000000 -1.000000 0.000000
vn 0.000000 -1.000000 0.000000
vn 0.000000 -1.000000 0.000000
vn 0.000000 -1.000000 0.000000
vn 0.000000 -1.000000 0.000000
vn 0.000000 -1.000000 0.000000
vn 0.000000 -1.000000 0.000000
vn 0.000000 -1.000000 0.000000
vn 0.000000 -1.000000 0.000000
vn 0.000000 -1.000000 0.000000
vn 0.000000 -1.000000 0.000000
vn 0.000000 -1.000000 0.000000
vn 0.000000 -1.000000 0.000000
vn 0.000000 -1.000000 0.000000
vn 0.000000 -1.000000 0.000000
vn 0.000000 -1.000000 0.000000
vn 0.000000 -1.000000 0.000000
vn 0.000000 -1.000000 0.000000
vn 0.000000 -1.000000 0.000000
vn 0.000000 -1.000000 0.000000
vn 0.000000 -1.000000 0.000000
vn 0.000000 -1.000000 0.000000
vn 0.000000 -1.000000 0.000000
vn 0.000000 0.000000 1.000000
vn 0.000000 0.000000 1.000000
vn 0.000000 0.000000 1.000000
vn 0.000000 0.000000 1.000000
vn 0.000000 0.000000 1.000000
vn 0.000000 0.000000 1.000000
vn 0.000000 0.000000 1.000000
vn 0.000000 0.000000 1.000000
vn -1.000000 0.000000 0.000000
vn -1.000000 0.000000 0.000000
vn -1.000000 0.000000 0.000000
vn -1.000000 0.000000 0.000000
vn 0.000000 0.185877 -0.982573
vn 0.000000 0.185877 -0.982573
vn 0.000000 0.185877 -0.982573
vn 0.000000 0.185877 -0.982573
vn -1.000000 0.000000 0.000000
vn -1.000000 0.000000 0.000000
vn 0.982573 0.185878 0.000000
vn 0.982573 0.185878 0.000000
vn 0.982573 0.185878 0.000000
vn 0.982573 0.185878 0.000000
vn -1.000000 0.000000 0.000000
vn -1.000000 0.000000 0.000000
vn 0.982573 0.185878 0.000000
vn 0.982573 0.185878 0.000000
vn -1.000000 0.000000 0.000000
vn -1.000000 0.000000 0.000000
vn 0.982573 0.185878 0.000000
vn 0.982573 0.185878 0.000000
vn -0.982573 0.185878 0.000000
vn -0.982573 0.185878 0.000000
vn -0.982573 0.185878 0.000000
vn -0.982573 0.185878 0.000000
vn -1.000000 0.000000 0.000000
vn -1.000000 0.000000 0.000000
vn 0.000000 0.185877 0.982573
vn 0.000000 0.185877 0.982573
vn 0.000000 0.185877 0.982573
vn 0.000000 0.185877 0.982573
vn 0.000000 0.185877 0.982573
vn 0.000000 0.185877 0.982573
vn 0.000000 0.185877 0.982573
vn 0.000000 0.185877 0.982573
vn 0.000000 0.000000 -1.000000
vn 0.000000 0.000000 -1.000000
vn 0.000000 0.000000 -1.000000
vn 0.000000 0.000000 -1.000000
vn 0.000000 0.000000 -1.000000
vn 0.000000 0.000000 -1.000000
vn 0.000000 0.000000 -1.000000
vn 0.000000 0.000000 -1.000000
vn 0.000000 0.000000 -1.000000
vn 0.000000 0.000000 -1.000000
vn 0.000000 0.000000 -1.000000
vn 0.000000 0.000000 -1.000000
vn 1.000000 0.000000 0.000000
vn 1.000000 0.000000 0.000000
vn 1.000000 0.000000 0.000000
vn 1.000000 0.000000 0.000000
vn 1.000000 0.000000 0.000000
vn 1.000000 0.000000 0.000000
vn 1.000000 0.000000 0.000000
vn 1.000000 0.000000 0.000000
s 1
g pPlane1
usemtl initialShadingGroup
f 25/53/1 26/54/2 30/59/3 29/57/4
f 26/54/2 27/55/5 31/58/6 30/59/3
f 27/55/5 28/56/7 32/60/8 31/58/6
f 29/57/4 30/59/3 34/62/9 33/61/10
f 33/61/10 34/62/9 36/64/11 35/63/12
f 35/63/12 36/64/11 38/66/13 37/65/14
f 31/58/6 32/60/8 40/68/15 39/67/16
f 37/65/14 38/66/13 42/20/17 41/69/18
f 38/66/13 43/70/19 44/21/20 42/20/17
f 43/70/19 45/71/21 46/22/22 44/21/20
f 45/71/21 39/67/16 47/23/23 46/22/22
f 39/67/16 40/68/15 48/72/24 47/23/23
s 2
f 1/29/25 5/33/26 6/34/27 2/30/28
f 2/30/28 6/34/27 7/35/29 3/31/30
f 3/31/30 7/35/29 8/36/31 4/32/32
f 5/33/26 9/37/33 10/38/34 6/34/27
f 9/37/33 11/39/35 12/40/36 10/38/34
f 11/39/35 13/41/37 14/42/38 12/40/36
f 7/35/29 17/43/39 18/44/40 8/36/31
f 13/41/37 19/45/41 20/46/42 14/42/38
f 14/42/38 20/46/42 21/48/43 15/47/44
f 15/47/44 21/48/43 22/50/45 16/49/46
f 16/49/46 22/50/45 23/51/47 17/43/39
f 17/43/39 23/51/47 24/52/48 18/44/40
s 3
f 1/1/49 2/2/50 26/54/51 25/53/52
f 2/2/50 3/3/53 27/55/54 26/54/51
f 3/3/53 4/4/55 28/56/56 27/55/54
s 4
f 5/5/57 1/1/58 25/53/59 29/57/60
s off
f 7/7/61 6/6/62 30/59/63 31/58/64
s 4
f 9/9/65 5/5/57 29/57/60 33/61/66
s 5
f 6/6/67 10/10/68 34/62/69 30/59/70
s 4
f 11/11/71 9/9/65 33/61/66 35/63/72
s 5
f 10/10/68 12/12/73 36/64/74 34/62/69
s 4
f 13/13/75 11/11/71 35/63/72 37/65/76
s 5
f 12/12/73 14/14/77 38/66/78 36/64/74
s off
f 17/17/79 7/7/80 31/58/81 39/67/82
s 4
f 19/19/83 13/13/75 37/65/76 41/69/84
s 6
f 14/14/85 15/15/86 43/70/87 38/66/88
f 15/15/86 16/16/89 45/71/90 43/70/87
f 16/16/89 17/17/91 39/67/92 45/71/90
s 7
f 20/25/93 19/19/94 41/69/95 42/20/96
f 21/26/97 20/25/93 42/20/96 44/21/98
f 22/27/99 21/26/97 44/21/98 46/22/100
f 23/28/101 22/27/99 46/22/100 47/23/102
f 24/24/103 23/28/101 47/23/102 48/72/104
s 8
f 8/8/105 32/60/106 28/56/107 4/4/108
f 18/18/109 40/68/110 32/60/106 8/8/105
f 48/72/111 40/68/110 18/18/109 24/24/112
