# This file uses centimeters as units for non-parametric coordinates.

mtllib window.mtl
g default
v -1.533804 1.686217 0.810014
v -1.533804 3.489099 0.810014
v -1.533804 3.489099 1.687084
v -1.533804 3.489099 2.564153
v -1.533804 9.572941 0.810014
v -1.533804 9.572941 1.687084
v -1.533804 9.572941 2.564153
v -1.533804 11.375811 0.810014
vt 0.411730 0.188572
vt 0.322666 0.188737
vt 0.500455 0.005330
vt 0.500793 0.188407
vt 0.501939 0.806201
vt 0.412875 0.806367
vt 0.323812 0.806531
vt 0.502279 0.989277
vn 1.000000 0.000000 0.000000
vn 1.000000 0.000000 0.000000
vn 1.000000 0.000000 0.000000
vn 1.000000 0.000000 0.000000
vn 1.000000 0.000000 0.000000
vn 1.000000 0.000000 0.000000
vn 1.000000 0.000000 0.000000
vn 1.000000 0.000000 0.000000
vn 1.000000 0.000000 0.000000
vn 1.000000 0.000000 0.000000
vn 1.000000 0.000000 0.000000
vn 1.000000 0.000000 0.000000
vn 1.000000 0.000000 0.000000
vn 1.000000 0.000000 0.000000
vn 1.000000 0.000000 0.000000
vn 1.000000 0.000000 0.000000
s off
g polySurface1 window:polySurface21
usemtl window:initialShadingGroup
f 3/1/1 4/2/2 1/3/3 2/4/4
f 2/4/5 5/5/6 6/6/7 3/1/8
f 3/1/9 6/6/10 7/7/11 4/2/12
f 7/7/13 6/6/14 5/5/15 8/8/16
g default
v -1.533804 1.686217 0.811319
v -1.533804 3.489099 0.811319
v -1.533804 3.489099 -0.065751
v -1.533804 3.489099 -0.942820
v -1.533804 9.572941 0.811319
v -1.533804 9.572941 -0.065751
v -1.533804 9.572941 -0.942820
v -1.533804 11.375811 0.811319
vt 0.591506 0.186862
vt 0.502231 0.187186
vt 0.501564 0.003674
vt 0.680781 0.186538
vt 0.593755 0.806125
vt 0.504480 0.806450
vt 0.683031 0.805801
vt 0.505146 0.989961
vn 1.000000 -0.000000 0.000000
vn 1.000000 -0.000000 0.000000
vn 1.000000 -0.000000 0.000000
vn 1.000000 -0.000000 0.000000
vn 1.000000 -0.000000 0.000000
vn 1.000000 -0.000000 0.000000
vn 1.000000 0.000000 0.000000
vn 1.000000 0.000000 0.000000
vn 1.000000 -0.000000 0.000000
vn 1.000000 -0.000000 0.000000
vn 1.000000 0.000000 0.000000
vn 1.000000 0.000000 0.000000
vn 1.000000 0.000000 0.000000
vn 1.000000 0.000000 0.000000
vn 1.000000 0.000000 0.000000
vn 1.000000 0.000000 0.000000
s off
g window:polySurface21 polySurface2
usemtl window:initialShadingGroup
f 11/9/17 10/10/18 9/11/19 12/12/20
f 10/10/21 11/9/22 14/13/23 13/14/24
f 11/9/25 12/12/26 15/15/27 14/13/28
f 15/15/29 16/16/30 13/14/31 14/13/32
