# This file uses centimeters as units for non-parametric coordinates.

mtllib pattern_plane2low.mtl
g pattern_plane1low:default1
v -2.323981 0.663449 0.079162
v -1.859185 0.663449 0.079162
v -1.394388 0.663449 0.079162
v -0.929592 0.663449 0.079162
v -0.464796 0.663449 0.079162
v 0.000000 0.663449 0.079162
v 0.464796 0.663449 0.079162
v 0.929592 0.663449 0.079162
v 1.394388 0.663449 0.079162
v 1.859185 0.663449 0.079162
v 2.323981 0.663449 0.079162
v -2.323981 1.128246 0.079162
v -1.859185 1.128246 0.079162
v -1.394388 1.128246 0.079162
v -0.929592 1.128246 0.079162
v -0.464796 1.128246 0.079162
v 0.000000 1.128246 0.079162
v 0.464796 1.128246 0.079162
v 0.929592 1.128246 0.079162
v 1.394388 1.128246 0.079162
v 1.859185 1.128246 0.079162
v 2.323981 1.128246 0.079162
v -2.323981 1.593042 0.079162
v -1.859185 1.593042 0.079162
v -1.394388 1.593042 0.079162
v -0.929592 1.593042 0.079162
v -0.464796 1.593042 0.079162
v 0.000000 1.593042 0.079162
v 0.464796 1.593042 0.079162
v 0.929592 1.593042 0.079162
v 1.394388 1.593042 0.079162
v 1.859185 1.593042 0.079162
v 2.323981 1.593042 0.079162
v -2.323981 2.057838 0.079162
v -1.859185 2.057838 0.079162
v -1.394388 2.057838 0.079162
v -0.929592 2.057838 0.079162
v -0.464796 2.057838 0.079162
v 0.000000 2.057838 0.079162
v 0.464796 2.057838 0.079162
v 0.929592 2.057838 0.079162
v 1.394388 2.057838 0.079162
v 1.859185 2.057838 0.079162
v 2.323981 2.057838 0.079162
v -2.323981 2.522634 0.079162
v -1.859185 2.522634 0.079162
v -1.394388 2.522634 0.079162
v -0.929592 2.522634 0.079162
v -0.464796 2.522634 0.079162
v 0.000000 2.522634 0.079162
v 0.464796 2.522634 0.079162
v 0.929592 2.522634 0.079162
v 1.394388 2.522634 0.079162
v 1.859185 2.522634 0.079162
v 2.323981 2.522634 0.079162
v -2.323981 2.987430 0.079162
v -1.859185 2.987430 0.079162
v -1.394388 2.987430 0.079162
v -0.929592 2.987430 0.079162
v -0.464796 2.987430 0.079162
v 0.000000 2.987430 0.079162
v 0.464796 2.987430 0.079162
v 0.929592 2.987430 0.079162
v 1.394388 2.987430 0.079162
v 1.859185 2.987430 0.079162
v 2.323981 2.987430 0.079162
v -2.323981 3.452226 0.079162
v -1.859185 3.452226 0.079162
v -1.394388 3.452226 0.079162
v -0.929592 3.452226 0.079162
v -0.464796 3.452226 0.079162
v 0.000000 3.452226 0.079162
v 0.464796 3.452226 0.079162
v 0.929592 3.452226 0.079162
v 1.394388 3.452226 0.079162
v 1.859185 3.452226 0.079162
v 2.323981 3.452226 0.079162
v -2.323981 3.917022 0.079162
v -1.859185 3.917022 0.079162
v -1.394388 3.917022 0.079162
v -0.929592 3.917022 0.079162
v -0.464796 3.917022 0.079162
v 0.000000 3.917022 0.079162
v 0.464796 3.917022 0.079162
v 0.929592 3.917022 0.079162
v 1.394388 3.917022 0.079162
v 1.859185 3.917022 0.079162
v 2.323981 3.917022 0.079162
v -2.323981 4.381819 0.079162
v -1.859185 4.381819 0.079162
v -1.394388 4.381819 0.079162
v -0.929592 4.381819 0.079162
v -0.464796 4.381819 0.079162
v 0.000000 4.381819 0.079162
v 0.464796 4.381819 0.079162
v 0.929592 4.381819 0.079162
v 1.394388 4.381819 0.079162
v 1.859185 4.381819 0.079162
v 2.323981 4.381819 0.079162
v -2.323981 4.846615 0.079162
v -1.859185 4.846615 0.079162
v -1.394388 4.846615 0.079162
v -0.929592 4.846615 0.079162
v -0.464796 4.846615 0.079162
v 0.000000 4.846615 0.079162
v 0.464796 4.846615 0.079162
v 0.929592 4.846615 0.079162
v 1.394388 4.846615 0.079162
v 1.859185 4.846615 0.079162
v 2.323981 4.846615 0.079162
v -2.323981 5.311411 0.079162
v -1.859185 5.311411 0.079162
v -1.394388 5.311411 0.079162
v -0.929592 5.311411 0.079162
v -0.464796 5.311411 0.079162
v 0.000000 5.311411 0.079162
v 0.464796 5.311411 0.079162
v 0.929592 5.311411 0.079162
v 1.394388 5.311411 0.079162
v 1.859185 5.311411 0.079162
v 2.323981 5.311411 0.079162
vt 0.000000 0.000000
vt 0.100000 0.000000
vt 0.200000 0.000000
vt 0.300000 0.000000
vt 0.400000 0.000000
vt 0.500000 0.000000
vt 0.600000 0.000000
vt 0.700000 0.000000
vt 0.800000 0.000000
vt 0.900000 0.000000
vt 1.000000 0.000000
vt 0.000000 0.100000
vt 0.100000 0.100000
vt 0.200000 0.100000
vt 0.300000 0.100000
vt 0.400000 0.100000
vt 0.500000 0.100000
vt 0.600000 0.100000
vt 0.700000 0.100000
vt 0.800000 0.100000
vt 0.900000 0.100000
vt 1.000000 0.100000
vt 0.000000 0.200000
vt 0.100000 0.200000
vt 0.200000 0.200000
vt 0.300000 0.200000
vt 0.400000 0.200000
vt 0.500000 0.200000
vt 0.600000 0.200000
vt 0.700000 0.200000
vt 0.800000 0.200000
vt 0.900000 0.200000
vt 1.000000 0.200000
vt 0.000000 0.300000
vt 0.100000 0.300000
vt 0.200000 0.300000
vt 0.300000 0.300000
vt 0.400000 0.300000
vt 0.500000 0.300000
vt 0.600000 0.300000
vt 0.700000 0.300000
vt 0.800000 0.300000
vt 0.900000 0.300000
vt 1.000000 0.300000
vt 0.000000 0.400000
vt 0.100000 0.400000
vt 0.200000 0.400000
vt 0.300000 0.400000
vt 0.400000 0.400000
vt 0.500000 0.400000
vt 0.600000 0.400000
vt 0.700000 0.400000
vt 0.800000 0.400000
vt 0.900000 0.400000
vt 1.000000 0.400000
vt 0.000000 0.500000
vt 0.100000 0.500000
vt 0.200000 0.500000
vt 0.300000 0.500000
vt 0.400000 0.500000
vt 0.500000 0.500000
vt 0.600000 0.500000
vt 0.700000 0.500000
vt 0.800000 0.500000
vt 0.900000 0.500000
vt 1.000000 0.500000
vt 0.000000 0.600000
vt 0.100000 0.600000
vt 0.200000 0.600000
vt 0.300000 0.600000
vt 0.400000 0.600000
vt 0.500000 0.600000
vt 0.600000 0.600000
vt 0.700000 0.600000
vt 0.800000 0.600000
vt 0.900000 0.600000
vt 1.000000 0.600000
vt 0.000000 0.700000
vt 0.100000 0.700000
vt 0.200000 0.700000
vt 0.300000 0.700000
vt 0.400000 0.700000
vt 0.500000 0.700000
vt 0.600000 0.700000
vt 0.700000 0.700000
vt 0.800000 0.700000
vt 0.900000 0.700000
vt 1.000000 0.700000
vt 0.000000 0.800000
vt 0.100000 0.800000
vt 0.200000 0.800000
vt 0.300000 0.800000
vt 0.400000 0.800000
vt 0.500000 0.800000
vt 0.600000 0.800000
vt 0.700000 0.800000
vt 0.800000 0.800000
vt 0.900000 0.800000
vt 1.000000 0.800000
vt 0.000000 0.900000
vt 0.100000 0.900000
vt 0.200000 0.900000
vt 0.300000 0.900000
vt 0.400000 0.900000
vt 0.500000 0.900000
vt 0.600000 0.900000
vt 0.700000 0.900000
vt 0.800000 0.900000
vt 0.900000 0.900000
vt 1.000000 0.900000
vt 0.000000 1.000000
vt 0.100000 1.000000
vt 0.200000 1.000000
vt 0.300000 1.000000
vt 0.400000 1.000000
vt 0.500000 1.000000
vt 0.600000 1.000000
vt 0.700000 1.000000
vt 0.800000 1.000000
vt 0.900000 1.000000
vt 1.000000 1.000000
vn 0.000000 0.000000 1.000000
vn 0.000000 0.000000 1.000000
vn 0.000000 0.000000 1.000000
vn 0.000000 -0.000000 1.000000
vn 0.000000 0.000000 1.000000
vn 0.000000 0.000000 1.000000
vn 0.000000 0.000000 1.000000
vn 0.000000 0.000000 1.000000
vn 0.000000 0.000000 1.000000
vn 0.000000 0.000000 1.000000
vn 0.000000 0.000000 1.000000
vn 0.000000 0.000000 1.000000
vn 0.000000 0.000000 1.000000
vn 0.000000 0.000000 1.000000
vn 0.000000 0.000000 1.000000
vn 0.000000 0.000000 1.000000
vn 0.000000 0.000000 1.000000
vn 0.000000 0.000000 1.000000
vn 0.000000 0.000000 1.000000
vn 0.000000 0.000000 1.000000
vn 0.000000 0.000000 1.000000
vn 0.000000 0.000000 1.000000
vn 0.000000 0.000000 1.000000
vn 0.000000 0.000000 1.000000
vn 0.000000 0.000000 1.000000
vn 0.000000 0.000000 1.000000
vn 0.000000 0.000000 1.000000
vn 0.000000 0.000000 1.000000
vn 0.000000 0.000000 1.000000
vn 0.000000 0.000000 1.000000
vn 0.000000 0.000000 1.000000
vn 0.000000 0.000000 1.000000
vn 0.000000 0.000000 1.000000
vn 0.000000 0.000000 1.000000
vn 0.000000 0.000000 1.000000
vn 0.000000 0.000000 1.000000
vn 0.000000 0.000000 1.000000
vn 0.000000 0.000000 1.000000
vn 0.000000 -0.000000 1.000000
vn 0.000000 0.000000 1.000000
vn 0.000000 -0.000000 1.000000
vn 0.000000 0.000000 1.000000
vn 0.000000 -0.000000 1.000000
vn 0.000000 -0.000000 1.000000
vn 0.000000 0.000000 1.000000
vn 0.000000 0.000000 1.000000
vn 0.000000 0.000000 1.000000
vn 0.000000 -0.000000 1.000000
vn 0.000000 0.000000 1.000000
vn 0.000000 0.000000 1.000000
vn 0.000000 0.000000 1.000000
vn 0.000000 0.000000 1.000000
vn 0.000000 0.000000 1.000000
vn 0.000000 0.000000 1.000000
vn 0.000000 -0.000000 1.000000
vn 0.000000 0.000000 1.000000
vn 0.000000 0.000000 1.000000
vn 0.000000 0.000000 1.000000
vn 0.000000 -0.000000 1.000000
vn 0.000000 -0.000000 1.000000
vn 0.000000 0.000000 1.000000
vn 0.000000 0.000000 1.000000
vn 0.000000 0.000000 1.000000
vn 0.000000 -0.000000 1.000000
vn 0.000000 0.000000 1.000000
vn 0.000000 0.000000 1.000000
vn 0.000000 0.000000 1.000000
vn 0.000000 0.000000 1.000000
vn 0.000000 0.000000 1.000000
vn 0.000000 0.000000 1.000000
vn 0.000000 0.000000 1.000000
vn 0.000000 0.000000 1.000000
vn 0.000000 0.000000 1.000000
vn 0.000000 0.000000 1.000000
vn 0.000000 0.000000 1.000000
vn 0.000000 0.000000 1.000000
vn 0.000000 0.000000 1.000000
vn 0.000000 -0.000000 1.000000
vn 0.000000 -0.000000 1.000000
vn 0.000000 0.000000 1.000000
vn 0.000000 -0.000000 1.000000
vn 0.000000 -0.000000 1.000000
vn 0.000000 0.000000 1.000000
vn 0.000000 -0.000000 1.000000
vn 0.000000 -0.000000 1.000000
vn 0.000000 0.000000 1.000000
vn 0.000000 0.000000 1.000000
vn 0.000000 0.000000 1.000000
vn 0.000000 0.000000 1.000000
vn 0.000000 0.000000 1.000000
vn 0.000000 0.000000 1.000000
vn 0.000000 0.000000 1.000000
vn 0.000000 0.000000 1.000000
vn 0.000000 -0.000000 1.000000
vn 0.000000 0.000000 1.000000
vn 0.000000 0.000000 1.000000
vn 0.000000 -0.000000 1.000000
vn 0.000000 -0.000000 1.000000
vn 0.000000 0.000000 1.000000
vn 0.000000 0.000000 1.000000
vn 0.000000 -0.000000 1.000000
vn 0.000000 0.000000 1.000000
vn 0.000000 0.000000 1.000000
vn 0.000000 0.000000 1.000000
vn 0.000000 0.000000 1.000000
vn 0.000000 0.000000 1.000000
vn 0.000000 0.000000 1.000000
vn 0.000000 0.000000 1.000000
vn 0.000000 0.000000 1.000000
vn 0.000000 0.000000 1.000000
vn 0.000000 0.000000 1.000000
vn 0.000000 0.000000 1.000000
vn 0.000000 0.000000 1.000000
vn 0.000000 0.000000 1.000000
vn 0.000000 0.000000 1.000000
vn 0.000000 0.000000 1.000000
vn 0.000000 0.000000 1.000000
vn 0.000000 -0.000000 1.000000
vn 0.000000 0.000000 1.000000
vn 0.000000 0.000000 1.000000
vn 0.000000 -0.000000 1.000000
vn 0.000000 0.000000 1.000000
vn 0.000000 0.000000 1.000000
vn 0.000000 -0.000000 1.000000
vn 0.000000 0.000000 1.000000
vn 0.000000 0.000000 1.000000
vn 0.000000 0.000000 1.000000
vn 0.000000 0.000000 1.000000
vn 0.000000 0.000000 1.000000
vn 0.000000 0.000000 1.000000
vn 0.000000 0.000000 1.000000
vn 0.000000 0.000000 1.000000
vn 0.000000 0.000000 1.000000
vn 0.000000 0.000000 1.000000
vn 0.000000 0.000000 1.000000
vn 0.000000 0.000000 1.000000
vn 0.000000 0.000000 1.000000
vn 0.000000 0.000000 1.000000
vn 0.000000 0.000000 1.000000
vn 0.000000 0.000000 1.000000
vn 0.000000 0.000000 1.000000
vn 0.000000 0.000000 1.000000
vn 0.000000 0.000000 1.000000
vn 0.000000 0.000000 1.000000
vn 0.000000 0.000000 1.000000
vn 0.000000 0.000000 1.000000
vn 0.000000 0.000000 1.000000
vn 0.000000 0.000000 1.000000
vn 0.000000 0.000000 1.000000
vn 0.000000 0.000000 1.000000
vn 0.000000 0.000000 1.000000
vn 0.000000 0.000000 1.000000
vn 0.000000 0.000000 1.000000
vn 0.000000 0.000000 1.000000
vn 0.000000 0.000000 1.000000
vn 0.000000 0.000000 1.000000
vn 0.000000 0.000000 1.000000
vn 0.000000 0.000000 1.000000
vn 0.000000 -0.000000 1.000000
vn 0.000000 0.000000 1.000000
vn 0.000000 -0.000000 1.000000
vn 0.000000 0.000000 1.000000
vn 0.000000 0.000000 1.000000
vn 0.000000 -0.000000 1.000000
vn 0.000000 0.000000 1.000000
vn 0.000000 0.000000 1.000000
vn 0.000000 0.000000 1.000000
vn 0.000000 0.000000 1.000000
vn 0.000000 0.000000 1.000000
vn 0.000000 0.000000 1.000000
vn 0.000000 0.000000 1.000000
vn 0.000000 0.000000 1.000000
vn 0.000000 0.000000 1.000000
vn 0.000000 0.000000 1.000000
vn 0.000000 0.000000 1.000000
vn 0.000000 0.000000 1.000000
vn 0.000000 0.000000 1.000000
vn 0.000000 0.000000 1.000000
vn 0.000000 0.000000 1.000000
vn 0.000000 0.000000 1.000000
vn 0.000000 0.000000 1.000000
vn 0.000000 0.000000 1.000000
vn 0.000000 0.000000 1.000000
vn 0.000000 0.000000 1.000000
vn 0.000000 0.000000 1.000000
vn 0.000000 0.000000 1.000000
vn 0.000000 0.000000 1.000000
vn 0.000000 0.000000 1.000000
vn 0.000000 0.000000 1.000000
vn 0.000000 0.000000 1.000000
vn 0.000000 0.000000 1.000000
vn 0.000000 0.000000 1.000000
vn 0.000000 0.000000 1.000000
vn 0.000000 0.000000 1.000000
vn 0.000000 0.000000 1.000000
vn 0.000000 0.000000 1.000000
vn 0.000000 0.000000 1.000000
vn 0.000000 -0.000000 1.000000
vn 0.000000 -0.000000 1.000000
vn 0.000000 0.000000 1.000000
vn 0.000000 -0.000000 1.000000
vn 0.000000 0.000000 1.000000
vn 0.000000 0.000000 1.000000
vn 0.000000 -0.000000 1.000000
vn 0.000000 0.000000 1.000000
vn 0.000000 0.000000 1.000000
vn 0.000000 0.000000 1.000000
vn 0.000000 0.000000 1.000000
vn 0.000000 0.000000 1.000000
vn 0.000000 0.000000 1.000000
vn 0.000000 0.000000 1.000000
vn 0.000000 0.000000 1.000000
vn 0.000000 0.000000 1.000000
vn 0.000000 0.000000 1.000000
vn 0.000000 0.000000 1.000000
vn 0.000000 0.000000 1.000000
vn 0.000000 0.000000 1.000000
vn 0.000000 0.000000 1.000000
vn 0.000000 0.000000 1.000000
vn 0.000000 0.000000 1.000000
vn 0.000000 0.000000 1.000000
vn 0.000000 0.000000 1.000000
vn 0.000000 0.000000 1.000000
vn 0.000000 0.000000 1.000000
vn 0.000000 0.000000 1.000000
vn 0.000000 0.000000 1.000000
vn 0.000000 0.000000 1.000000
vn 0.000000 0.000000 1.000000
vn 0.000000 0.000000 1.000000
vn 0.000000 0.000000 1.000000
vn 0.000000 0.000000 1.000000
vn 0.000000 0.000000 1.000000
vn 0.000000 0.000000 1.000000
vn 0.000000 0.000000 1.000000
vn 0.000000 0.000000 1.000000
vn 0.000000 0.000000 1.000000
vn 0.000000 0.000000 1.000000
vn 0.000000 -0.000000 1.000000
vn 0.000000 0.000000 1.000000
vn 0.000000 0.000000 1.000000
vn 0.000000 -0.000000 1.000000
vn 0.000000 0.000000 1.000000
vn 0.000000 0.000000 1.000000
vn 0.000000 -0.000000 1.000000
vn 0.000000 0.000000 1.000000
vn 0.000000 0.000000 1.000000
vn 0.000000 0.000000 1.000000
vn 0.000000 0.000000 1.000000
vn 0.000000 0.000000 1.000000
vn 0.000000 0.000000 1.000000
vn 0.000000 0.000000 1.000000
vn 0.000000 0.000000 1.000000
vn 0.000000 0.000000 1.000000
vn 0.000000 0.000000 1.000000
vn 0.000000 0.000000 1.000000
vn 0.000000 0.000000 1.000000
vn 0.000000 0.000000 1.000000
vn 0.000000 0.000000 1.000000
vn 0.000000 0.000000 1.000000
vn 0.000000 0.000000 1.000000
vn 0.000000 0.000000 1.000000
vn 0.000000 0.000000 1.000000
vn 0.000000 0.000000 1.000000
vn 0.000000 0.000000 1.000000
vn 0.000000 0.000000 1.000000
vn 0.000000 0.000000 1.000000
vn 0.000000 0.000000 1.000000
vn 0.000000 0.000000 1.000000
vn 0.000000 0.000000 1.000000
vn 0.000000 0.000000 1.000000
vn 0.000000 0.000000 1.000000
vn 0.000000 0.000000 1.000000
vn 0.000000 0.000000 1.000000
vn 0.000000 0.000000 1.000000
vn 0.000000 0.000000 1.000000
vn 0.000000 0.000000 1.000000
vn 0.000000 0.000000 1.000000
vn 0.000000 0.000000 1.000000
vn 0.000000 0.000000 1.000000
vn 0.000000 0.000000 1.000000
vn 0.000000 -0.000000 1.000000
vn 0.000000 0.000000 1.000000
vn 0.000000 -0.000000 1.000000
vn 0.000000 -0.000000 1.000000
vn 0.000000 0.000000 1.000000
vn 0.000000 0.000000 1.000000
vn 0.000000 0.000000 1.000000
vn 0.000000 -0.000000 1.000000
vn 0.000000 0.000000 1.000000
vn 0.000000 0.000000 1.000000
vn 0.000000 0.000000 1.000000
vn 0.000000 0.000000 1.000000
vn 0.000000 0.000000 1.000000
vn 0.000000 0.000000 1.000000
vn 0.000000 -0.000000 1.000000
vn 0.000000 0.000000 1.000000
vn 0.000000 0.000000 1.000000
vn 0.000000 0.000000 1.000000
vn 0.000000 0.000000 1.000000
vn 0.000000 -0.000000 1.000000
vn 0.000000 0.000000 1.000000
vn 0.000000 0.000000 1.000000
vn 0.000000 0.000000 1.000000
vn 0.000000 0.000000 1.000000
vn 0.000000 0.000000 1.000000
vn 0.000000 0.000000 1.000000
vn 0.000000 0.000000 1.000000
vn 0.000000 0.000000 1.000000
vn 0.000000 0.000000 1.000000
vn 0.000000 0.000000 1.000000
vn 0.000000 0.000000 1.000000
vn 0.000000 0.000000 1.000000
vn 0.000000 0.000000 1.000000
vn 0.000000 0.000000 1.000000
vn 0.000000 0.000000 1.000000
vn 0.000000 0.000000 1.000000
vn 0.000000 0.000000 1.000000
vn 0.000000 0.000000 1.000000
vn 0.000000 0.000000 1.000000
vn 0.000000 0.000000 1.000000
vn 0.000000 -0.000000 1.000000
vn 0.000000 -0.000000 1.000000
vn 0.000000 0.000000 1.000000
vn 0.000000 -0.000000 1.000000
vn 0.000000 -0.000000 1.000000
vn 0.000000 0.000000 1.000000
vn 0.000000 0.000000 1.000000
vn 0.000000 0.000000 1.000000
vn 0.000000 0.000000 1.000000
vn 0.000000 0.000000 1.000000
vn 0.000000 0.000000 1.000000
vn 0.000000 0.000000 1.000000
vn 0.000000 0.000000 1.000000
vn 0.000000 -0.000000 1.000000
vn 0.000000 -0.000000 1.000000
vn 0.000000 0.000000 1.000000
vn 0.000000 -0.000000 1.000000
vn 0.000000 0.000000 1.000000
vn 0.000000 0.000000 1.000000
vn 0.000000 -0.000000 1.000000
vn 0.000000 0.000000 1.000000
vn 0.000000 0.000000 1.000000
vn 0.000000 0.000000 1.000000
vn 0.000000 0.000000 1.000000
vn 0.000000 0.000000 1.000000
vn 0.000000 0.000000 1.000000
vn 0.000000 0.000000 1.000000
vn 0.000000 0.000000 1.000000
vn 0.000000 0.000000 1.000000
vn 0.000000 0.000000 1.000000
vn 0.000000 0.000000 1.000000
vn 0.000000 0.000000 1.000000
vn 0.000000 0.000000 1.000000
vn 0.000000 0.000000 1.000000
vn 0.000000 0.000000 1.000000
vn 0.000000 0.000000 1.000000
vn 0.000000 0.000000 1.000000
vn 0.000000 0.000000 1.000000
vn 0.000000 0.000000 1.000000
vn 0.000000 0.000000 1.000000
vn 0.000000 -0.000000 1.000000
vn 0.000000 0.000000 1.000000
vn 0.000000 0.000000 1.000000
vn 0.000000 0.000000 1.000000
vn 0.000000 0.000000 1.000000
vn 0.000000 0.000000 1.000000
vn 0.000000 0.000000 1.000000
vn 0.000000 0.000000 1.000000
vn 0.000000 0.000000 1.000000
vn 0.000000 0.000000 1.000000
vn 0.000000 0.000000 1.000000
vn 0.000000 0.000000 1.000000
vn 0.000000 0.000000 1.000000
vn 0.000000 -0.000000 1.000000
vn 0.000000 0.000000 1.000000
vn 0.000000 0.000000 1.000000
vn 0.000000 -0.000000 1.000000
vn 0.000000 0.000000 1.000000
vn 0.000000 0.000000 1.000000
vn 0.000000 0.000000 1.000000
vn 0.000000 0.000000 1.000000
vn 0.000000 0.000000 1.000000
vn 0.000000 0.000000 1.000000
vn 0.000000 0.000000 1.000000
vn 0.000000 0.000000 1.000000
vn 0.000000 0.000000 1.000000
vn 0.000000 -0.000000 1.000000
vn 0.000000 0.000000 1.000000
vn 0.000000 0.000000 1.000000
vn 0.000000 0.000000 1.000000
vn 0.000000 0.000000 1.000000
vn 0.000000 -0.000000 1.000000
vn 0.000000 0.000000 1.000000
vn 0.000000 0.000000 1.000000
vn 0.000000 0.000000 1.000000
vn 0.000000 0.000000 1.000000
vn 0.000000 0.000000 1.000000
vn 0.000000 0.000000 1.000000
vn 0.000000 0.000000 1.000000
vn 0.000000 0.000000 1.000000
s off
g pattern_plane1low:initialShadingGroup pattern_plane1low:pPlane1 pattern_plane1low:polySurface1
usemtl initialShadingGroup
f 1/1/1 2/2/2 13/13/3 12/12/4
f 2/2/5 3/3/6 14/14/7 13/13/8
f 3/3/9 4/4/10 15/15/11 14/14/12
f 4/4/13 5/5/14 16/16/15 15/15/16
f 5/5/17 6/6/18 17/17/19 16/16/20
f 6/6/21 7/7/22 18/18/23 17/17/24
f 7/7/25 8/8/26 19/19/27 18/18/28
f 8/8/29 9/9/30 20/20/31 19/19/32
f 9/9/33 10/10/34 21/21/35 20/20/36
f 10/10/37 11/11/38 22/22/39 21/21/40
f 12/12/41 13/13/42 24/24/43 23/23/44
f 13/13/45 14/14/46 25/25/47 24/24/48
f 14/14/49 15/15/50 26/26/51 25/25/52
f 15/15/53 16/16/54 27/27/55 26/26/56
f 16/16/57 17/17/58 28/28/59 27/27/60
f 17/17/61 18/18/62 29/29/63 28/28/64
f 18/18/65 19/19/66 30/30/67 29/29/68
f 19/19/69 20/20/70 31/31/71 30/30/72
f 20/20/73 21/21/74 32/32/75 31/31/76
f 21/21/77 22/22/78 33/33/79 32/32/80
f 23/23/81 24/24/82 35/35/83 34/34/84
f 24/24/85 25/25/86 36/36/87 35/35/88
f 25/25/89 26/26/90 37/37/91 36/36/92
f 26/26/93 27/27/94 38/38/95 37/37/96
f 27/27/97 28/28/98 39/39/99 38/38/100
f 28/28/101 29/29/102 40/40/103 39/39/104
f 29/29/105 30/30/106 41/41/107 40/40/108
f 30/30/109 31/31/110 42/42/111 41/41/112
f 31/31/113 32/32/114 43/43/115 42/42/116
f 32/32/117 33/33/118 44/44/119 43/43/120
f 34/34/121 35/35/122 46/46/123 45/45/124
f 35/35/125 36/36/126 47/47/127 46/46/128
f 36/36/129 37/37/130 48/48/131 47/47/132
f 37/37/133 38/38/134 49/49/135 48/48/136
f 38/38/137 39/39/138 50/50/139 49/49/140
f 39/39/141 40/40/142 51/51/143 50/50/144
f 40/40/145 41/41/146 52/52/147 51/51/148
f 41/41/149 42/42/150 53/53/151 52/52/152
f 42/42/153 43/43/154 54/54/155 53/53/156
f 43/43/157 44/44/158 55/55/159 54/54/160
f 45/45/161 46/46/162 57/57/163 56/56/164
f 46/46/165 47/47/166 58/58/167 57/57/168
f 47/47/169 48/48/170 59/59/171 58/58/172
f 48/48/173 49/49/174 60/60/175 59/59/176
f 49/49/177 50/50/178 61/61/179 60/60/180
f 50/50/181 51/51/182 62/62/183 61/61/184
f 51/51/185 52/52/186 63/63/187 62/62/188
f 52/52/189 53/53/190 64/64/191 63/63/192
f 53/53/193 54/54/194 65/65/195 64/64/196
f 54/54/197 55/55/198 66/66/199 65/65/200
f 56/56/201 57/57/202 68/68/203 67/67/204
f 57/57/205 58/58/206 69/69/207 68/68/208
f 58/58/209 59/59/210 70/70/211 69/69/212
f 59/59/213 60/60/214 71/71/215 70/70/216
f 60/60/217 61/61/218 72/72/219 71/71/220
f 61/61/221 62/62/222 73/73/223 72/72/224
f 62/62/225 63/63/226 74/74/227 73/73/228
f 63/63/229 64/64/230 75/75/231 74/74/232
f 64/64/233 65/65/234 76/76/235 75/75/236
f 65/65/237 66/66/238 77/77/239 76/76/240
f 67/67/241 68/68/242 79/79/243 78/78/244
f 68/68/245 69/69/246 80/80/247 79/79/248
f 69/69/249 70/70/250 81/81/251 80/80/252
f 70/70/253 71/71/254 82/82/255 81/81/256
f 71/71/257 72/72/258 83/83/259 82/82/260
f 72/72/261 73/73/262 84/84/263 83/83/264
f 73/73/265 74/74/266 85/85/267 84/84/268
f 74/74/269 75/75/270 86/86/271 85/85/272
f 75/75/273 76/76/274 87/87/275 86/86/276
f 76/76/277 77/77/278 88/88/279 87/87/280
f 78/78/281 79/79/282 90/90/283 89/89/284
f 79/79/285 80/80/286 91/91/287 90/90/288
f 80/80/289 81/81/290 92/92/291 91/91/292
f 81/81/293 82/82/294 93/93/295 92/92/296
f 82/82/297 83/83/298 94/94/299 93/93/300
f 83/83/301 84/84/302 95/95/303 94/94/304
f 84/84/305 85/85/306 96/96/307 95/95/308
f 85/85/309 86/86/310 97/97/311 96/96/312
f 86/86/313 87/87/314 98/98/315 97/97/316
f 87/87/317 88/88/318 99/99/319 98/98/320
f 89/89/321 90/90/322 101/101/323 100/100/324
f 90/90/325 91/91/326 102/102/327 101/101/328
f 91/91/329 92/92/330 103/103/331 102/102/332
f 92/92/333 93/93/334 104/104/335 103/103/336
f 93/93/337 94/94/338 105/105/339 104/104/340
f 94/94/341 95/95/342 106/106/343 105/105/344
f 95/95/345 96/96/346 107/107/347 106/106/348
f 96/96/349 97/97/350 108/108/351 107/107/352
f 97/97/353 98/98/354 109/109/355 108/108/356
f 98/98/357 99/99/358 110/110/359 109/109/360
f 100/100/361 101/101/362 112/112/363 111/111/364
f 101/101/365 102/102/366 113/113/367 112/112/368
f 102/102/369 103/103/370 114/114/371 113/113/372
f 103/103/373 104/104/374 115/115/375 114/114/376
f 104/104/377 105/105/378 116/116/379 115/115/380
f 105/105/381 106/106/382 117/117/383 116/116/384
f 106/106/385 107/107/386 118/118/387 117/117/388
f 107/107/389 108/108/390 119/119/391 118/118/392
f 108/108/393 109/109/394 120/120/395 119/119/396
f 109/109/397 110/110/398 121/121/399 120/120/400
