# This file uses centimeters as units for non-parametric coordinates.

mtllib hexagon_plane_pattern1.mtl
g hexagon_plane_pattern1:default1
v -0.974031 1.175865 0.084389
v 0.989342 1.175865 0.084389
v 1.971029 2.876197 0.084389
v 0.989343 4.576528 0.084389
v -0.974031 4.576528 0.084389
v -1.955718 2.876197 0.084389
v 0.007656 2.876197 0.084389
v 0.639247 1.782248 0.084389
v 1.270838 2.876197 0.084389
v 0.639247 3.970143 0.084389
v -0.623935 3.970143 0.084389
v -1.255526 2.876197 0.084389
v -0.623935 1.782248 0.084389
vt 0.749795 0.075248
vt 0.258102 0.074917
vt 0.011968 0.500569
vt 0.257528 0.926554
vt 0.749221 0.926885
vt 0.995354 0.501232
vt 0.503661 0.500901
vt 0.345306 0.774755
vt 0.187319 0.500688
vt 0.345675 0.226834
vt 0.662017 0.227047
vt 0.820003 0.501114
vt 0.661648 0.774968
vn -0.000000 0.000000 1.000000
vn -0.000000 0.000000 1.000000
vn -0.000000 0.000000 1.000000
vn -0.000000 0.000000 1.000000
vn -0.000000 0.000000 1.000000
vn -0.000000 0.000000 1.000000
vn -0.000000 0.000000 1.000000
vn -0.000000 0.000000 1.000000
vn -0.000000 0.000000 1.000000
vn -0.000000 0.000000 1.000000
vn -0.000000 0.000000 1.000000
vn -0.000000 0.000000 1.000000
vn -0.000000 0.000000 1.000000
vn -0.000000 0.000000 1.000000
vn -0.000000 0.000000 1.000000
vn -0.000000 0.000000 1.000000
vn -0.000000 0.000000 1.000000
vn -0.000000 0.000000 1.000000
vn -0.000000 0.000000 1.000000
vn -0.000000 0.000000 1.000000
vn -0.000000 0.000000 1.000000
vn -0.000000 0.000000 1.000000
vn -0.000000 0.000000 1.000000
vn -0.000000 0.000000 1.000000
vn -0.000000 0.000000 1.000000
vn -0.000000 0.000000 1.000000
vn -0.000000 0.000000 1.000000
vn -0.000000 0.000000 1.000000
vn -0.000000 0.000000 1.000000
vn -0.000000 0.000000 1.000000
vn -0.000000 0.000000 1.000000
vn -0.000000 0.000000 1.000000
vn -0.000000 0.000000 1.000000
vn -0.000000 0.000000 1.000000
vn -0.000000 0.000000 1.000000
vn -0.000000 0.000000 1.000000
vn -0.000000 0.000000 1.000000
vn -0.000000 0.000000 1.000000
vn -0.000000 0.000000 1.000000
vn -0.000000 0.000000 1.000000
vn -0.000000 0.000000 1.000000
vn -0.000000 0.000000 1.000000
s off
g hexagon_plane_pattern1:initialShadingGroup hexagon_plane_pattern1:pCylinder11 hexagon_plane_pattern1:polySurface1
usemtl initialShadingGroup
f 13/13/1 8/8/2 7/7/3
f 8/8/4 9/9/5 7/7/6
f 9/9/7 10/10/8 7/7/9
f 10/10/10 11/11/11 7/7/12
f 11/11/13 12/12/14 7/7/15
f 12/12/16 13/13/17 7/7/18
f 2/4/19 3/3/20 9/9/21 8/8/22
f 3/3/23 4/2/24 10/10/25 9/9/26
f 4/2/27 5/1/28 11/11/29 10/10/30
f 5/1/31 6/6/32 12/12/33 11/11/34
f 6/6/35 1/5/36 13/13/37 12/12/38
f 1/5/39 2/4/40 8/8/41 13/13/42
