# This file uses centimeters as units for non-parametric coordinates.

mtllib fin.mtl
g lines:default1
v -15.999058 1.702859 -9.161555
v -16.055237 1.617902 -9.529886
v -15.721016 1.688889 -9.793805
v -15.528347 1.704177 -9.273287
v -15.273009 1.706746 -10.080076
v -15.003077 1.705541 -9.348410
v -14.739260 1.690978 -10.318923
v -14.349539 1.705672 -9.398639
v -14.105756 1.704970 -9.372051
v -14.475802 1.707827 -10.418253
v -13.999036 1.709128 -9.517294
v -13.925360 1.704736 -9.361270
v -13.922122 1.724755 -9.833545
v -14.230978 1.708142 -10.520377
v -13.790918 1.727977 -10.149443
v -13.865490 1.708579 -10.675037
v -13.579143 1.729937 -10.481963
v -13.577546 1.711903 -10.943524
v -13.643008 1.711284 -11.663931
v -13.428380 1.712542 -11.802760
v -13.355261 1.720210 -10.699900
v -13.458137 1.729350 -10.595641
v -13.167443 1.714072 -11.969649
v -13.029284 1.722552 -10.782702
v -12.954215 1.715314 -12.100143
v -12.830261 1.722079 -10.781080
v -12.431252 1.714343 -11.189633
v -12.494199 1.713776 -10.741350
vt 0.621088 0.675181
vt 0.600514 0.599608
vt 0.516682 0.632049
vt 0.560295 0.686668
vt 0.587102 0.514758
vt 0.469285 0.560144
vt 0.577486 0.409079
vt 0.429379 0.474260
vt 0.412707 0.431748
vt 0.581257 0.369557
vt 0.582617 0.340332
vt 0.557507 0.352592
vt 0.395608 0.392353
vt 0.506101 0.340750
vt 0.369710 0.333553
vt 0.454669 0.320214
vt 0.325594 0.287548
vt 0.400370 0.286671
vt 0.364493 0.250950
vt 0.186142 0.265493
vt 0.209137 0.299899
vt 0.381681 0.267352
vt 0.350292 0.198384
vt 0.158488 0.223661
vt 0.350066 0.166163
vt 0.136843 0.189463
vt 0.355668 0.111648
vt 0.282946 0.102569
vn -0.124642 0.989235 -0.076668
vn -0.124642 0.989235 -0.076668
vn -0.124642 0.989235 -0.076668
vn -0.124642 0.989235 -0.076668
vn -0.021033 0.999773 -0.003473
vn -0.021033 0.999773 -0.003473
vn -0.021033 0.999773 -0.003473
vn -0.021033 0.999773 -0.003473
vn 0.010190 0.999873 -0.012233
vn 0.010190 0.999873 -0.012233
vn 0.010190 0.999873 -0.012233
vn 0.010190 0.999873 -0.012233
vn -0.030966 0.999503 0.005949
vn -0.030966 0.999503 0.005949
vn -0.030966 0.999503 0.005949
vn -0.030966 0.999503 0.005949
vn -0.020465 0.999698 0.013580
vn -0.020465 0.999698 0.013580
vn -0.020465 0.999698 0.013580
vn -0.020465 0.999698 0.013580
vn -0.039046 0.999205 0.008048
vn -0.039046 0.999205 0.008048
vn -0.039046 0.999205 0.008048
vn -0.039046 0.999205 0.008048
vn -0.027303 0.999406 -0.021049
vn -0.027303 0.999406 -0.021049
vn -0.027303 0.999406 -0.021049
vn -0.027303 0.999406 -0.021049
vn -0.051495 0.998093 -0.034040
vn -0.051495 0.998093 -0.034040
vn -0.051495 0.998093 -0.034040
vn -0.051495 0.998093 -0.034040
vn -0.021184 0.999771 -0.002936
vn -0.021184 0.999771 -0.002936
vn -0.021184 0.999771 -0.002936
vn -0.021184 0.999771 -0.002936
vn -0.004020 0.998805 -0.048709
vn -0.004020 0.998805 -0.048709
vn -0.004020 0.998805 -0.048709
vn -0.004020 0.998805 -0.048709
vn -0.009234 0.999938 -0.006200
vn -0.009234 0.999938 -0.006200
vn -0.009234 0.999938 -0.006200
vn -0.009234 0.999938 -0.006200
vn -0.003647 0.999977 -0.005703
vn -0.003647 0.999977 -0.005703
vn -0.003647 0.999977 -0.005703
vn -0.003647 0.999977 -0.005703
vn 0.015256 0.999875 -0.004031
vn 0.015256 0.999876 -0.004031
vn 0.015256 0.999876 -0.004031
vn 0.015256 0.999876 -0.004031
s off
g lines:initialShadingGroup lines:pCylinder70 lines:polySurface7 lines:polySurface8 polySurface9 polySurface1 lines:polySurface1
usemtl lines:initialShadingGroup1
f 1/1/1 4/2/2 3/3/3 2/4/4
f 4/2/5 6/5/6 5/6/7 3/3/8
f 6/5/9 8/7/10 7/8/11 5/6/12
f 10/9/13 7/8/14 8/7/15 9/10/16
f 9/10/17 12/11/18 11/12/19 10/9/20
f 14/13/21 10/9/22 11/12/23 13/14/24
f 16/15/25 14/13/26 13/14/27 15/16/28
f 18/17/29 16/15/30 15/16/31 17/18/32
f 18/17/33 21/19/34 20/20/35 19/21/36
f 17/18/37 22/22/38 21/19/39 18/17/40
f 21/19/41 24/23/42 23/24/43 20/20/44
f 24/23/45 26/25/46 25/26/47 23/24/48
f 25/26/49 26/25/50 28/27/51 27/28/52
