# This file uses centimeters as units for non-parametric coordinates.

mtllib hexagons.mtl
g hexagon_form:default1
v -6.341228 18.267521 -7.760017
v -7.341228 18.267521 -7.760017
v -7.841228 18.267521 -6.893992
v -7.341228 18.267521 -6.027966
v -6.341228 18.267521 -6.027966
v -5.841228 18.267521 -6.893992
v -7.250072 18.267521 -7.602131
v -7.658916 18.267521 -6.893992
v -7.250072 18.267521 -6.185853
v -6.432384 18.267521 -6.185853
v -6.023540 18.267521 -6.893992
v -6.432384 18.267521 -7.602130
vt 0.260419 0.923422
vt 0.016284 0.499843
vt 0.105415 0.499909
vt 0.305042 0.846264
vt 0.261046 0.076626
vt 0.305555 0.153849
vt 0.749944 0.076988
vt 0.705321 0.154145
vt 0.994080 0.500567
vt 0.904948 0.500501
vt 0.749317 0.923784
vt 0.704808 0.846560
vn 0.000000 1.000000 0.000005
vn 0.000000 1.000000 0.000000
vn 0.000000 1.000000 0.000000
vn 0.000000 1.000000 0.000005
vn 0.000000 1.000000 0.000000
vn 0.000000 1.000000 -0.000002
vn 0.000000 1.000000 -0.000002
vn 0.000000 1.000000 0.000000
vn 0.000000 1.000000 -0.000002
vn 0.000000 1.000000 -0.000002
vn 0.000000 1.000000 -0.000002
vn 0.000000 1.000000 -0.000002
vn 0.000000 1.000000 -0.000002
vn 0.000000 1.000000 0.000000
vn 0.000000 1.000000 0.000000
vn 0.000000 1.000000 -0.000002
vn 0.000000 1.000000 0.000000
vn 0.000000 1.000000 0.000005
vn 0.000000 1.000000 0.000005
vn 0.000000 1.000000 0.000000
vn 0.000000 1.000000 0.000005
vn 0.000000 1.000000 0.000005
vn 0.000000 1.000000 0.000005
vn 0.000000 1.000000 0.000005
s off
g hexagon_form:initialShadingGroup hexagon_form:pCylinder71 polySurface2 hexagon_form:polySurface1
usemtl initialShadingGroup
f 2/1/1 3/2/2 8/3/3 7/4/4
f 3/2/5 4/5/6 9/6/7 8/3/8
f 4/5/9 5/7/10 10/8/11 9/6/12
f 5/7/13 6/9/14 11/10/15 10/8/16
f 6/9/17 1/11/18 12/12/19 11/10/20
f 1/11/21 2/1/22 7/4/23 12/12/24
g hexagon_form:default1
v -6.451264 18.267521 -7.569429
v -7.231192 18.267521 -7.569429
v -7.621155 18.267521 -6.893992
v -7.231192 18.267521 -6.218555
v -6.451264 18.267521 -6.218555
v -6.061301 18.267521 -6.893992
v -7.160097 18.267521 -7.446289
v -7.478965 18.267521 -6.893992
v -7.160097 18.267521 -6.341695
v -6.522359 18.267521 -6.341695
v -6.203491 18.267521 -6.893992
v -6.522359 18.267521 -7.446289
vt 0.316515 0.821646
vt 0.133270 0.499661
vt 0.200811 0.500080
vt 0.350649 0.763363
vt 0.320495 0.179973
vt 0.353903 0.238675
vt 0.690965 0.182271
vt 0.656832 0.240554
vt 0.874210 0.504256
vt 0.806669 0.503837
vt 0.686985 0.823944
vt 0.653578 0.765242
vn 0.000000 1.000000 -0.000003
vn 0.000000 1.000000 0.000001
vn 0.000000 1.000000 0.000001
vn 0.000000 1.000000 -0.000003
vn 0.000000 1.000000 0.000001
vn 0.000000 1.000000 0.000004
vn 0.000000 1.000000 0.000004
vn 0.000000 1.000000 0.000001
vn 0.000000 1.000000 0.000004
vn 0.000000 1.000000 0.000003
vn 0.000000 1.000000 0.000003
vn 0.000000 1.000000 0.000004
vn 0.000000 1.000000 0.000003
vn 0.000000 1.000000 -0.000001
vn 0.000000 1.000000 -0.000001
vn 0.000000 1.000000 0.000003
vn 0.000000 1.000000 -0.000001
vn 0.000000 1.000000 -0.000004
vn 0.000000 1.000000 -0.000004
vn 0.000000 1.000000 -0.000001
vn 0.000000 1.000000 -0.000004
vn 0.000000 1.000000 -0.000003
vn 0.000000 1.000000 -0.000003
vn 0.000000 1.000000 -0.000004
s off
g hexagon_form:initialShadingGroup hexagon_form:pCylinder71 hexagon_form:polySurface1 polySurface1
usemtl initialShadingGroup
f 14/13/25 15/14/26 20/15/27 19/16/28
f 15/14/29 16/17/30 21/18/31 20/15/32
f 16/17/33 17/19/34 22/20/35 21/18/36
f 17/19/37 18/21/38 23/22/39 22/20/40
f 18/21/41 13/23/42 24/24/43 23/22/44
f 13/23/45 14/13/46 19/16/47 24/24/48
