# This file uses centimeters as units for non-parametric coordinates.

mtllib lines.mtl
g emmission_lines_fin:default1
v -7.978765 1.702859 -9.161555
v -7.922586 1.617902 -9.529886
v -8.256807 1.688889 -9.793805
v -8.449476 1.704177 -9.273287
v -8.704814 1.706746 -10.080076
v -8.974747 1.705541 -9.348410
v -9.238564 1.690978 -10.318923
v -9.628284 1.705672 -9.398639
v -9.872067 1.704970 -9.372051
v -9.502021 1.707827 -10.418253
v -9.978787 1.709128 -9.517294
v -10.052464 1.704736 -9.361270
v -10.055701 1.724755 -9.833545
v -9.746845 1.708142 -10.520377
v -10.186905 1.727977 -10.149443
v -10.112333 1.708579 -10.675037
v -10.398681 1.729937 -10.481963
v -10.400277 1.711903 -10.943524
v -10.334815 1.711284 -11.663931
v -10.549443 1.712542 -11.802760
v -10.622562 1.720210 -10.699900
v -10.519687 1.729350 -10.595641
v -10.810380 1.714072 -11.969649
v -10.948539 1.722552 -10.782702
v -11.023608 1.715314 -12.100143
v -11.147562 1.722079 -10.781080
v -11.546572 1.714343 -11.189633
v -11.483624 1.713776 -10.741350
vt 0.621088 0.675181
vt 0.560295 0.686668
vt 0.516682 0.632049
vt 0.600514 0.599608
vt 0.469285 0.560144
vt 0.587102 0.514758
vt 0.429379 0.474260
vt 0.577486 0.409079
vt 0.412707 0.431748
vt 0.581257 0.369557
vt 0.557507 0.352592
vt 0.582617 0.340332
vt 0.395608 0.392353
vt 0.506101 0.340750
vt 0.369710 0.333553
vt 0.454669 0.320214
vt 0.325594 0.287548
vt 0.400370 0.286671
vt 0.209137 0.299899
vt 0.186142 0.265493
vt 0.364493 0.250950
vt 0.381681 0.267352
vt 0.158488 0.223661
vt 0.350292 0.198384
vt 0.136843 0.189463
vt 0.350066 0.166163
vt 0.282946 0.102569
vt 0.355668 0.111648
vn 0.124642 0.989235 -0.076668
vn 0.124642 0.989235 -0.076668
vn 0.124642 0.989235 -0.076668
vn 0.124642 0.989235 -0.076668
vn 0.021033 0.999773 -0.003473
vn 0.021033 0.999773 -0.003473
vn 0.021033 0.999773 -0.003473
vn 0.021033 0.999773 -0.003473
vn -0.010190 0.999873 -0.012233
vn -0.010190 0.999873 -0.012233
vn -0.010190 0.999873 -0.012233
vn -0.010190 0.999873 -0.012233
vn 0.030966 0.999503 0.005949
vn 0.030966 0.999503 0.005949
vn 0.030966 0.999503 0.005949
vn 0.030966 0.999503 0.005949
vn 0.020465 0.999698 0.013580
vn 0.020465 0.999698 0.013580
vn 0.020465 0.999698 0.013580
vn 0.020465 0.999698 0.013580
vn 0.039046 0.999205 0.008048
vn 0.039046 0.999205 0.008048
vn 0.039046 0.999205 0.008048
vn 0.039046 0.999205 0.008048
vn 0.027303 0.999406 -0.021049
vn 0.027303 0.999406 -0.021049
vn 0.027303 0.999406 -0.021049
vn 0.027303 0.999406 -0.021049
vn 0.051495 0.998093 -0.034040
vn 0.051495 0.998093 -0.034040
vn 0.051495 0.998093 -0.034040
vn 0.051495 0.998093 -0.034040
vn 0.021184 0.999771 -0.002936
vn 0.021184 0.999771 -0.002936
vn 0.021184 0.999771 -0.002936
vn 0.021184 0.999771 -0.002936
vn 0.004020 0.998805 -0.048709
vn 0.004020 0.998805 -0.048709
vn 0.004020 0.998805 -0.048709
vn 0.004020 0.998805 -0.048709
vn 0.009234 0.999938 -0.006200
vn 0.009234 0.999938 -0.006200
vn 0.009234 0.999938 -0.006200
vn 0.009234 0.999938 -0.006200
vn 0.003647 0.999977 -0.005703
vn 0.003647 0.999977 -0.005703
vn 0.003647 0.999977 -0.005703
vn 0.003647 0.999977 -0.005703
vn -0.015256 0.999875 -0.004031
vn -0.015256 0.999876 -0.004031
vn -0.015256 0.999876 -0.004031
vn -0.015256 0.999876 -0.004031
s off
g emmission_lines_fin:initialShadingGroup emmission_lines_fin:pCylinder70 polySurface7 emmission_lines_fin:polySurface1
usemtl initialShadingGroup
f 1/1/1 2/2/2 3/3/3 4/4/4
f 4/4/5 3/3/6 5/5/7 6/6/8
f 6/6/9 5/5/10 7/7/11 8/8/12
f 10/9/13 9/10/14 8/8/15 7/7/16
f 9/10/17 10/9/18 11/11/19 12/12/20
f 14/13/21 13/14/22 11/11/23 10/9/24
f 16/15/25 15/16/26 13/14/27 14/13/28
f 18/17/29 17/18/30 15/16/31 16/15/32
f 18/17/33 19/19/34 20/20/35 21/21/36
f 17/18/37 18/17/38 21/21/39 22/22/40
f 21/21/41 20/20/42 23/23/43 24/24/44
f 24/24/45 23/23/46 25/25/47 26/26/48
f 25/25/49 27/27/50 28/28/51 26/26/52
g emmission_lines_fin:default1
v -6.451264 1.695683 -11.355525
v -7.231192 1.695683 -11.355526
v -7.621155 1.695683 -10.680089
v -7.231192 1.695683 -10.004652
v -6.451264 1.695683 -10.004652
v -6.061301 1.695683 -10.680089
v -7.160097 1.695683 -11.232385
v -7.478965 1.695683 -10.680089
v -7.160097 1.695683 -10.127792
v -6.522359 1.695683 -10.127792
v -6.203491 1.695683 -10.680089
v -6.522359 1.695683 -11.232385
vt 0.088009 0.553117
vt 0.130252 0.527413
vt 0.130459 0.536426
vt 0.095918 0.557443
vt 0.173633 0.551145
vt 0.165931 0.555831
vt 0.174771 0.600579
vt 0.166862 0.596253
vt 0.132529 0.626283
vt 0.132321 0.617270
vt 0.089148 0.602551
vt 0.096849 0.597865
vn 0.000000 1.000000 -0.000003
vn 0.000000 1.000000 0.000001
vn 0.000000 1.000000 0.000001
vn 0.000000 1.000000 -0.000003
vn 0.000000 1.000000 0.000001
vn 0.000000 1.000000 0.000004
vn 0.000000 1.000000 0.000004
vn 0.000000 1.000000 0.000001
vn 0.000000 1.000000 0.000004
vn 0.000000 1.000000 0.000003
vn 0.000000 1.000000 0.000003
vn 0.000000 1.000000 0.000004
vn 0.000000 1.000000 0.000003
vn 0.000000 1.000000 -0.000001
vn 0.000000 1.000000 -0.000001
vn 0.000000 1.000000 0.000003
vn 0.000000 1.000000 -0.000001
vn 0.000000 1.000000 -0.000004
vn 0.000000 1.000000 -0.000004
vn 0.000000 1.000000 -0.000001
vn 0.000000 1.000000 -0.000004
vn 0.000000 1.000000 -0.000003
vn 0.000000 1.000000 -0.000003
vn 0.000000 1.000000 -0.000004
s off
g emmission_lines_fin:initialShadingGroup emmission_lines_fin:pCylinder70 emmission_lines_fin:polySurface1 polySurface6
usemtl initialShadingGroup
f 30/29/53 31/30/54 36/31/55 35/32/56
f 31/30/57 32/33/58 37/34/59 36/31/60
f 32/33/61 33/35/62 38/36/63 37/34/64
f 33/35/65 34/37/66 39/38/67 38/36/68
f 34/37/69 29/39/70 40/40/71 39/38/72
f 29/39/73 30/29/74 35/32/75 40/40/76
g emmission_lines_fin:default1
v -6.341228 1.695683 -9.482685
v -7.341228 1.695683 -9.482685
v -7.841228 1.695683 -8.616659
v -5.841228 1.695683 -8.616659
v -7.250072 1.695683 -9.324798
v -7.658916 1.695683 -8.616659
v -6.023540 1.695683 -8.616659
v -6.432384 1.695683 -9.324798
vt 0.413659 0.705072
vt 0.468037 0.672449
vt 0.468231 0.684008
vt 0.423767 0.710683
vt 0.470163 0.799257
vt 0.414722 0.768475
vt 0.424636 0.762528
vt 0.469969 0.787697
vn 0.000000 1.000000 0.000005
vn 0.000000 1.000000 0.000002
vn 0.000000 1.000000 0.000002
vn 0.000000 1.000000 0.000005
vn 0.000000 1.000000 0.000002
vn 0.000000 1.000000 0.000005
vn 0.000000 1.000000 0.000005
vn 0.000000 1.000000 0.000002
vn 0.000000 1.000000 0.000005
vn 0.000000 1.000000 0.000005
vn 0.000000 1.000000 0.000005
vn 0.000000 1.000000 0.000005
s off
g emmission_lines_fin:initialShadingGroup emmission_lines_fin:pCylinder70 emmission_lines_fin:polySurface1 polySurface5
usemtl initialShadingGroup
f 42/41/77 43/42/78 46/43/79 45/44/80
f 44/45/81 41/46/82 48/47/83 47/48/84
f 41/46/85 42/41/86 45/44/87 48/47/88
g emmission_lines_fin:default1
v -3.530204 1.695683 -5.565480
v -12.919260 1.695683 -5.565480
v -3.030205 1.695683 -4.699455
v -12.828103 1.695683 -5.407593
v -3.212517 1.695683 -4.699455
v -3.621360 1.695683 -5.407593
vt 0.972365 0.808220
vt 0.916413 0.776928
vt 0.926454 0.770947
vt 0.972205 0.796534
vt 0.908188 0.175080
vt 0.918388 0.180785
vn 0.000000 1.000000 0.000005
vn 0.000000 1.000000 -0.000001
vn 0.000000 1.000000 -0.000001
vn 0.000000 1.000000 0.000005
vn 0.000000 1.000000 -0.000001
vn 0.000000 1.000000 -0.000002
vn 0.000000 1.000000 -0.000002
vn 0.000000 1.000000 -0.000001
s off
g emmission_lines_fin:initialShadingGroup emmission_lines_fin:pCylinder70 emmission_lines_fin:polySurface1 polySurface4
usemtl initialShadingGroup
f 51/49/89 49/50/90 54/51/91 53/52/92
f 49/50/93 50/53/94 52/54/95 54/51/96
g emmission_lines_fin:default1
v -6.341227 1.695683 -8.321255
v -11.244038 1.695683 -8.321255
v -11.744038 1.695683 -7.455230
v -5.841228 1.695683 -7.455230
v -11.152880 1.695683 -8.163368
v -11.561726 1.695683 -7.455230
v -6.023540 1.695683 -7.455230
v -6.432383 1.695683 -8.163368
vt 0.679575 0.291525
vt 0.736387 0.257601
vt 0.736561 0.269777
vt 0.690134 0.297465
vt 0.741808 0.637039
vt 0.685925 0.606605
vt 0.695924 0.600830
vt 0.741647 0.625760
vn 0.000000 1.000000 -0.000003
vn 0.000000 1.000000 -0.000002
vn 0.000000 1.000000 -0.000002
vn 0.000000 1.000000 -0.000003
vn 0.000000 1.000000 0.000005
vn 0.000000 1.000000 -0.000002
vn 0.000000 1.000000 -0.000002
vn 0.000000 1.000000 0.000005
vn 0.000000 1.000000 -0.000002
vn 0.000000 1.000000 -0.000003
vn 0.000000 1.000000 -0.000003
vn 0.000000 1.000000 -0.000002
s off
g emmission_lines_fin:initialShadingGroup emmission_lines_fin:pCylinder70 emmission_lines_fin:polySurface1 polySurface3
usemtl initialShadingGroup
f 56/55/97 57/56/98 60/57/99 59/58/100
f 58/59/101 55/60/102 62/61/103 61/62/104
f 55/60/105 56/55/106 59/58/107 62/61/108
g emmission_lines_fin:default1
v -0.217419 1.695683 -6.935302
v -15.492195 1.695683 -6.935302
v 0.282580 1.695683 -6.069277
v -15.401038 1.695683 -6.777415
v 0.100268 1.695683 -6.069277
v -0.308575 1.695683 -6.777415
vt 0.897092 0.963920
vt 0.847505 0.937819
vt 0.856474 0.932867
vt 0.897044 0.954246
vt 0.837798 0.036080
vt 0.847836 0.041926
vn 0.000000 1.000000 0.000003
vn 0.000000 1.000000 -0.000013
vn 0.000000 1.000000 -0.000013
vn 0.000000 1.000000 0.000003
vn 0.000000 1.000000 -0.000013
vn 0.000000 1.000000 -0.000014
vn 0.000000 1.000000 -0.000014
vn 0.000000 1.000000 -0.000013
s off
g emmission_lines_fin:initialShadingGroup emmission_lines_fin:pCylinder70 emmission_lines_fin:polySurface1 polySurface2
usemtl initialShadingGroup
f 65/63/109 63/64/110 68/65/111 67/66/112
f 63/64/113 64/67/114 66/68/115 68/65/116
g emmission_lines_fin:default1
v -6.341228 1.695683 -11.546114
v -7.341228 1.695683 -11.546114
v -7.841228 1.695683 -10.680089
v -7.341228 1.695683 -9.814063
v -6.341228 1.695683 -9.814063
v -5.841228 1.695683 -10.680089
v -7.250072 1.695683 -11.388227
v -7.658916 1.695683 -10.680089
v -7.250072 1.695683 -9.971950
v -6.432384 1.695683 -9.971950
v -6.023540 1.695683 -10.680089
v -6.432384 1.695683 -11.388227
vt 0.089751 0.752844
vt 0.197560 0.687234
vt 0.198092 0.710237
vt 0.109937 0.763885
vt 0.308285 0.747795
vt 0.288630 0.759756
vt 0.311201 0.873966
vt 0.291014 0.862925
vt 0.203391 0.939576
vt 0.202860 0.916574
vt 0.092666 0.879015
vt 0.112321 0.867054
vn 0.000000 1.000000 0.000005
vn 0.000000 1.000000 0.000000
vn 0.000000 1.000000 0.000000
vn 0.000000 1.000000 0.000005
vn 0.000000 1.000000 0.000000
vn 0.000000 1.000000 -0.000002
vn 0.000000 1.000000 -0.000002
vn 0.000000 1.000000 0.000000
vn 0.000000 1.000000 -0.000002
vn 0.000000 1.000000 -0.000002
vn 0.000000 1.000000 -0.000002
vn 0.000000 1.000000 -0.000002
vn 0.000000 1.000000 -0.000002
vn 0.000000 1.000000 0.000000
vn 0.000000 1.000000 0.000000
vn 0.000000 1.000000 -0.000002
vn 0.000000 1.000000 0.000000
vn 0.000000 1.000000 0.000005
vn 0.000000 1.000000 0.000005
vn 0.000000 1.000000 0.000000
vn 0.000000 1.000000 0.000005
vn 0.000000 1.000000 0.000005
vn 0.000000 1.000000 0.000005
vn 0.000000 1.000000 0.000005
s off
g emmission_lines_fin:initialShadingGroup emmission_lines_fin:pCylinder70 emmission_lines_fin:polySurface1 polySurface1
usemtl initialShadingGroup
f 70/69/117 71/70/118 76/71/119 75/72/120
f 71/70/121 72/73/122 77/74/123 76/71/124
f 72/73/125 73/75/126 78/76/127 77/74/128
f 73/75/129 74/77/130 79/78/131 78/76/132
f 74/77/133 69/79/134 80/80/135 79/78/136
f 69/79/137 70/69/138 75/72/139 80/80/140
